<?xml version="1.0" encoding="utf-8"?>
<!-- Generator: Adobe Illustrator 21.0.2, SVG Export Plug-In . SVG Version: 6.00 Build 0)  -->
<svg version="1.1" id="Layer_1" xmlns="http://www.w3.org/2000/svg" xmlns:xlink="http://www.w3.org/1999/xlink" x="0px" y="0px"
	 viewBox="0 0 664.5 234.8" style="enable-background:new 0 0 664.5 234.8;" xml:space="preserve">
<style type="text/css">
	.st0{fill-rule:evenodd;clip-rule:evenodd;fill:#C6D061;}
	.st1{fill-rule:evenodd;clip-rule:evenodd;fill:#9CA744;}
	.st2{fill-rule:evenodd;clip-rule:evenodd;fill:#757C38;}
	.st3{fill-rule:evenodd;clip-rule:evenodd;fill:#7C7470;}
	.st4{fill-rule:evenodd;clip-rule:evenodd;fill:#D2B174;}
	.st5{fill-rule:evenodd;clip-rule:evenodd;fill:#F9E6AE;}
	.st6{fill-rule:evenodd;clip-rule:evenodd;fill:#42403D;}
	.st7{fill-rule:evenodd;clip-rule:evenodd;fill:#BCBCBC;}
	.st8{fill-rule:evenodd;clip-rule:evenodd;fill:#6F3E33;}
	.st9{fill-rule:evenodd;clip-rule:evenodd;fill:#645F5C;}
	.st10{fill-rule:evenodd;clip-rule:evenodd;fill:#959595;}
	.st11{fill-rule:evenodd;clip-rule:evenodd;fill:#818181;}
	.st12{fill-rule:evenodd;clip-rule:evenodd;fill:#A9A9A9;}
	.st13{fill-rule:evenodd;clip-rule:evenodd;fill:#F0F0F0;}
	.st14{fill-rule:evenodd;clip-rule:evenodd;fill:#BDBDBD;}
	.st15{fill-rule:evenodd;clip-rule:evenodd;fill:#405662;}
	.st16{fill-rule:evenodd;clip-rule:evenodd;fill:#E7BF74;}
	.st17{fill-rule:evenodd;clip-rule:evenodd;fill:#F5F5F5;}
	.st18{fill-rule:evenodd;clip-rule:evenodd;fill:#FFFFFF;}
	.st19{fill-rule:evenodd;clip-rule:evenodd;fill:#B89966;}
	.st20{fill-rule:evenodd;clip-rule:evenodd;fill:#9F7E49;}
	.st21{fill-rule:evenodd;clip-rule:evenodd;fill:#A58859;}
	.st22{fill-rule:evenodd;clip-rule:evenodd;fill:#4A2C26;}
	.st23{fill:#6F3E33;}
	.st24{fill-rule:evenodd;clip-rule:evenodd;fill:#77623A;}
	.st25{fill-rule:evenodd;clip-rule:evenodd;fill:#27343A;}
	.st26{fill-rule:evenodd;clip-rule:evenodd;fill:#4C4847;}
	.st27{fill-rule:evenodd;clip-rule:evenodd;fill:#759B99;}
	.st28{fill-rule:evenodd;clip-rule:evenodd;fill:#89B2B0;}
	.st29{fill-rule:evenodd;clip-rule:evenodd;fill:#7F4343;}
	.st30{fill-rule:evenodd;clip-rule:evenodd;fill:#5B3434;}
	.st31{fill-rule:evenodd;clip-rule:evenodd;fill:#4C6972;}
	.st32{fill-rule:evenodd;clip-rule:evenodd;fill:#8B5347;}
	.st33{fill:#9D6152;}
	.st34{fill:#8B5347;}
	.st35{fill-rule:evenodd;clip-rule:evenodd;fill:#282E31;}
	.st36{fill-rule:evenodd;clip-rule:evenodd;fill:#BBB9B1;}
	.st37{fill-rule:evenodd;clip-rule:evenodd;fill:#D67627;}
	.st38{fill-rule:evenodd;clip-rule:evenodd;fill:#4E4E4E;}
	.st39{fill-rule:evenodd;clip-rule:evenodd;fill:#252525;}
	.st40{fill-rule:evenodd;clip-rule:evenodd;fill:#CF8127;}
	.st41{fill-rule:evenodd;clip-rule:evenodd;fill:#AD5918;}
	.st42{fill-rule:evenodd;clip-rule:evenodd;fill:#B8D0CC;}
	.st43{fill-rule:evenodd;clip-rule:evenodd;fill:#CEECF8;}
	.st44{fill-rule:evenodd;clip-rule:evenodd;fill:#45576C;}
	.st45{fill-rule:evenodd;clip-rule:evenodd;fill:#75919C;}
	.st46{fill-rule:evenodd;clip-rule:evenodd;fill:#213443;}
	.st47{fill-rule:evenodd;clip-rule:evenodd;fill:#EBA956;}
</style>
<g>
	<path class="st0" d="M365.7,65.9c33.9-31.4,77.4-8.4,79.8,26.2c3.3-3.2,10.7-6.6,19.3-6.7c8.6-0.1,22.5,6.1,28.5,15.4
		c15.5-13.2,35.4-18.7,54.3-13.1c25.3,7.5,41.2,32.6,41.5,61.3c15.7-6.2,35.3-0.1,42.9,14.6c2.2,4.1,3.5,8.7,4,13.4
		c2.8-1.6,6-2.5,9.4-2.5c10.6,0,19.1,8.6,19.1,19.1c0,5-1.9,9.6-5.1,13h-522c-9.1-11.8-14.5-26.3-14.5-42
		c0-32.8,23.4-60.4,55.1-68.5c-1.4-3.1-2.3-6.6-2.3-10.2c0-13.4,10.8-24.2,24.1-24.2c2,0,4,0.3,5.9,0.7c-0.5-2.9-0.7-5.8-0.7-8.8
		c0-29.7,24-53.7,53.6-53.7c25.3,0,46.5,17.6,52.1,41.3c5.8-5.5,13.6-8.8,22.3-8.8c18,0,32.5,14.6,32.5,32.6
		C365.7,65.4,365.7,65.6,365.7,65.9L365.7,65.9z"/>
	<path class="st0" d="M115,45.8c15.2,2,25.9,15.9,23.9,31.2c-1.7,12.9-11.9,22.6-24.3,24.1c4.1,7.1,6,15.5,4.9,24.3
		c-2.7,21-22,35.9-43,33.2c-21-2.7-35.8-22-33-43C46.3,95,64.7,80.4,85.1,82.2c-1.3-3.9-1.7-8-1.2-12.3
		C85.9,54.6,99.8,43.9,115,45.8L115,45.8z"/>
	<path class="st1" d="M16.1,178c4.5,0,8.5,1.8,11.4,4.8c3.2-8.1,11-13.9,20.3-13.9c12,0,21.7,9.8,21.7,21.8c0,6.4-2.7,12.1-7.1,16.1
		c-22.5,0-35.2,0-56.4,0c-3.7-3-6.1-7.5-6.1-12.6C0,185.3,7.2,178,16.1,178L16.1,178z"/>
	<path class="st2" d="M22.4,199.6c2.1-0.3,3.4-1.6,4.4-3.2l0,0c-0.3-1.2-0.6-2.5-0.7-3.8c0.2-6.5,7.3,6.9,13.7,7.7
		c9.9,1.2,5.8-1.7,16.2-4.1c11.5-2.6,7.6-22.9,13.1-9.2l0,0c0.2,1.2,0.3,2.4,0.3,3.6c0,6.4-2.7,12.1-7.1,16.1H6.1
		c-1.7-1.3-3.1-3-4.1-4.9l0-0.1c-2.9-6.2,3.6,3.9,8.3,3C15.8,203.9,14.6,200.7,22.4,199.6L22.4,199.6z"/>
	<path class="st2" d="M50.5,187.8c1,0,1.8,1.3,1.8,2.9c0,1.6-0.8,1-1.8,1s-1.8,0.6-1.8-1C48.7,189.1,49.5,187.8,50.5,187.8
		L50.5,187.8z"/>
	<path class="st2" d="M57.1,182.6c1,0,1.8,1.3,1.8,2.9c0,1.6-0.8,1-1.8,1c-1,0-1.8,0.6-1.8-1C55.3,183.9,56.1,182.6,57.1,182.6
		L57.1,182.6z"/>
	<path class="st2" d="M50.5,176.2c1,0,1.8,1.3,1.8,2.9c0,1.6-0.8,1-1.8,1s-1.8,0.6-1.8-1C48.7,177.5,49.5,176.2,50.5,176.2
		L50.5,176.2z"/>
	<path class="st1" d="M599.5,173.8c11.4,0,20.7,9.3,20.7,20.8c0,4.6-1.5,8.8-4,12.2H401.1c-5.8-6.6-9.4-15.3-9.4-24.8
		c0-20.7,16.7-37.4,37.3-37.4c8,0,15.5,2.6,21.6,6.9c5.5-21.6,25-37.6,48.2-37.6c21.7,0,40.1,13.9,46.9,33.3
		c24.3-12.3,49.2,5.4,49.8,27.1C596.8,173.9,598.1,173.8,599.5,173.8L599.5,173.8z"/>
	<path class="st2" d="M605.7,196.9c7.8,0,2.1-21.8,14-7.2c0.4,1.6,0.6,3.2,0.6,4.8c0,4.6-1.5,8.8-4,12.2h-22.1
		C593,203.6,596,196.8,605.7,196.9L605.7,196.9z"/>
	<path class="st2" d="M563.6,173.8c1.2,0,2.1,1.5,2.1,3.4s-0.9,1.2-2.1,1.2c-1.2,0-2.1,0.7-2.1-1.2
		C561.5,175.3,562.5,173.8,563.6,173.8L563.6,173.8z"/>
	<path class="st2" d="M550.5,179.2c1.3,0,2.3,1.4,2.3,3.1c0,1.7-1,0.7-2.3,0.7c-1.3,0-2.3,1-2.3-0.7
		C548.2,180.6,549.2,179.2,550.5,179.2L550.5,179.2z"/>
	<path class="st2" d="M556.7,164c1,0,1.8,1.3,1.8,2.9c0,1.6-0.8,1-1.8,1c-1,0-1.8,0.6-1.8-1C554.8,165.3,555.7,164,556.7,164
		L556.7,164z"/>
	<path class="st2" d="M532.7,132.6c1.1,0,2,1.5,2,3.3c0,1.8-0.9,1.2-2,1.2c-1.1,0-2,0.7-2-1.2C530.7,134,531.6,132.6,532.7,132.6
		L532.7,132.6z"/>
	<path class="st2" d="M525.5,138c1.2,0,2.1,1.5,2.1,3.4c0,1.9-0.9,1.2-2.1,1.2c-1.2,0-2.1,0.7-2.1-1.2
		C523.4,139.5,524.3,138,525.5,138L525.5,138z"/>
	<path class="st2" d="M521.8,127.3c0.9,0,1.6,1.2,1.6,2.6c0,1.4-0.7,0.9-1.6,0.9c-0.9,0-1.6,0.5-1.6-0.9
		C520.2,128.4,520.9,127.3,521.8,127.3L521.8,127.3z"/>
	<path class="st2" d="M592.5,194c1,0,1.8,1.3,1.8,2.8c0,1.6-0.8,1-1.8,1c-1,0-1.8,0.6-1.8-1C590.7,195.3,591.5,194,592.5,194
		L592.5,194z"/>
	<path class="st2" d="M442.1,193.5c4-0.5,12.8,2.9,12.1-6.7l0,0c-0.6-2.4-1.1-4.8-1.3-7.3c0.4-12.6,14.1,13.4,26.6,14.9
		c19.2,2.3,10.9-10.6,31.4-7.9c7,0.9,12.5-4.4,12.5-10.1c-5.2-3.4-10.9-29.7,3.3-29.7c8,0,12.6-11.3,19,0.5
		c-10.5,6.6-17.9,16.5-20.8,29.5c-0.3,3.4-0.3,6.7,0.3,9.9c3.8,8.8,16.4,11.8,20.6,3.8c2.9-5.6,13.2-0.5,19.2-2.6
		c8.9-3.1,9.5-19.7,19.7-8.9c-7.3,5.8-14.6,16-8.2,27.8H537h-1.1l-134.8,0l0,0c-3.5-3.9-6.2-8.6-7.7-13.8c2.7-1.6,17,9,24.3,7.8
		C428.6,198.9,427,195.4,442.1,193.5L442.1,193.5z M524.5,176.7c0.1,0.1,0.3,0.1,0.3,0C524.8,176.7,524.7,176.7,524.5,176.7
		L524.5,176.7z"/>
	<path class="st2" d="M438.9,168.1c1.2,0,2.1,1.5,2.1,3.4c0,1.9-0.9,1.2-2.1,1.2c-1.2,0-2.1,0.7-2.1-1.2
		C436.8,169.6,437.7,168.1,438.9,168.1L438.9,168.1z"/>
	<path class="st2" d="M443.6,157c0.9,0,1.7,1.2,1.7,2.7c0,1.5-0.8,1-1.7,1c-0.9,0-1.7,0.5-1.7-1C441.9,158.3,442.7,157,443.6,157
		L443.6,157z"/>
	<path class="st2" d="M433.6,157c0.9,0,1.7,1.2,1.7,2.7c0,1.5-0.8,1-1.7,1c-0.9,0-1.7,0.5-1.7-1C431.9,158.3,432.7,157,433.6,157
		L433.6,157z"/>
	<path class="st2" d="M406.6,186.5c1.2,0,2.1,1.5,2.1,3.4c0,1.9-0.9,1.2-2.1,1.2c-1.2,0-2.1,0.7-2.1-1.2
		C404.5,188.1,405.4,186.5,406.6,186.5L406.6,186.5z"/>
	<polygon class="st3" points="96.9,177.6 197,177.6 197,206.8 96.9,206.8 96.9,177.6 	"/>
	<polygon class="st4" points="133.7,183.4 166,183.4 166,199.7 133.7,199.7 133.7,183.4 	"/>
	<path class="st5" d="M99.8,93.9L182,32l42.7,32.1l-48,36.2l5.3,7.1l17.9-13.5v83.7h-100V93.9L99.8,93.9z M210.5,177.6h43.1v-70.2
		c-16.4-9.7-30.5-9-43.1,0V177.6L210.5,177.6z"/>
	<path class="st4" d="M182,50c8.5,0,15.5,6.9,15.5,15.5c0,8.5-6.9,15.5-15.5,15.5s-15.5-6.9-15.5-15.5C166.5,56.9,173.5,50,182,50
		L182,50z"/>
	<polygon class="st5" points="377.9,123.6 377.9,177.6 360,177.6 360,139.7 282,139.7 282,177.6 264.1,177.6 264.1,123.6 
		377.9,123.6 	"/>
	<polygon class="st6" points="267.1,177.6 282,177.6 282,206.8 267.1,206.8 267.1,177.6 	"/>
	<polygon class="st7" points="264.1,116.5 392.1,116.5 392.1,123.6 264.1,123.6 264.1,116.5 	"/>
	<polygon class="st8" points="217.6,47.8 247.7,47.8 247.7,58.6 266.4,58.6 266.4,47.8 392.1,47.8 392.1,116.5 264.1,116.5 
		264.1,93.9 282,107.4 287.4,100.3 217.6,47.8 	"/>
	<polygon class="st9" points="256.5,177.6 267.1,177.6 267.1,206.8 256.5,206.8 256.5,177.6 	"/>
	<polygon class="st9" points="197,177.6 207.6,177.6 207.6,206.8 197,206.8 197,177.6 	"/>
	<polygon class="st3" points="360,177.6 380.8,177.6 380.8,206.8 360,206.8 360,177.6 	"/>
	<polygon class="st10" points="207.6,206.8 256.5,206.8 256.5,200.9 207.6,200.9 207.6,206.8 	"/>
	<polygon class="st11" points="207.6,200.9 256.5,200.9 256.5,195.1 207.6,195.1 207.6,200.9 	"/>
	<polygon class="st12" points="207.6,195.1 256.5,195.1 256.5,189.3 207.6,189.3 207.6,195.1 	"/>
	<polygon class="st10" points="207.6,189.3 256.5,189.3 256.5,183.4 207.6,183.4 207.6,189.3 	"/>
	<polygon class="st13" points="232,58.6 182,20.9 76.6,100.3 81.9,107.4 182,32 224.6,64.2 232,58.6 	"/>
	<polygon class="st5" points="249.9,20.9 264.1,20.9 264.1,38.7 249.9,38.7 249.9,20.9 	"/>
	<polygon class="st14" points="207.6,183.4 256.5,183.4 256.5,177.6 207.6,177.6 207.6,183.4 	"/>
	<path class="st15" d="M182,52.8c7,0,12.6,5.7,12.6,12.6S189,78.1,182,78.1c-7,0-12.6-5.7-12.6-12.6S175,52.8,182,52.8L182,52.8z"/>
	<polygon class="st16" points="247.7,15.6 266.4,15.6 266.4,20.9 247.7,20.9 247.7,15.6 	"/>
	<polygon class="st5" points="249.9,10.4 264.1,10.4 264.1,15.6 249.9,15.6 249.9,10.4 	"/>
	<polygon class="st16" points="247.7,38.7 266.4,38.7 266.4,58.6 247.7,58.6 247.7,38.7 	"/>
	<polygon class="st4" points="152.8,166.8 173.6,166.8 173.6,107.4 152.8,107.4 152.8,166.8 	"/>
	<polygon class="st15" points="136.5,186.3 163.2,186.3 163.2,196.8 136.5,196.8 136.5,186.3 	"/>
	<polygon class="st4" points="126.1,166.8 146.9,166.8 146.9,107.4 126.1,107.4 126.1,166.8 	"/>
	<polygon class="st17" points="282,139.7 360,139.7 360,155.8 282,155.8 282,139.7 	"/>
	<path class="st16" d="M199.9,93.9L232,69.7l32.1,24.2v83.7h-64.3V93.9L199.9,93.9z M210.5,177.6h43.1v-70.2
		c-16.4-9.7-30.5-9-43.1,0V177.6L210.5,177.6z"/>
	<polygon class="st18" points="287.4,100.3 232,58.6 232,58.6 176.7,100.3 182,107.4 232,69.7 282,107.4 287.4,100.3 	"/>
	<path class="st19" d="M99.8,93.9L182,32l42.7,32.1l-5.3,4l-32.5-24.5l-9.2,6.9c-3.7,1.1-6.8,3.5-8.8,6.6l-69.1,52.1V93.9L99.8,93.9
		z"/>
	<polygon class="st20" points="199.9,93.9 232,69.7 264.1,93.8 264.1,101.8 237,81.3 199.9,109.3 199.9,93.9 	"/>
	<path class="st21" d="M210.5,177.6H221v-37.9c9.8-7,20.5-9,32.6-4.9v-27.4c-16.4-9.7-30.5-9-43.1,0V177.6L210.5,177.6z"/>
	<polygon class="st19" points="377.9,123.6 377.9,133.3 301.6,133.3 304.3,139.7 282,139.7 282,177.6 264.1,177.6 264.1,123.6 
		377.9,123.6 	"/>
	<polygon class="st7" points="282,139.7 360,139.7 360,145.7 306.9,145.7 311.3,155.8 282,155.8 282,139.7 	"/>
	<polygon class="st22" points="294.4,116.5 264.1,116.5 264.1,93.9 282,107.4 287.4,100.3 294.4,116.5 	"/>
	<path class="st23" d="M291.5,116.5v-6.6l2.2,5v1.6H291.5L291.5,116.5z M277.3,116.5v-12.7l2.2,1.6v11.1H277.3L277.3,116.5z"/>
	<path class="st24" d="M182,50c1.9,0,3.8,0.4,5.5,1l-20.9,15.7c0-0.4-0.1-0.9-0.1-1.3C166.5,56.9,173.5,50,182,50L182,50z"/>
	<path class="st25" d="M182,52.8c0.9,0,1.8,0.1,2.7,0.3l-15.3,11.5C169.8,58.1,175.3,52.8,182,52.8L182,52.8z"/>
	<path class="st15" d="M128.9,123.6h15.2V164h-15.2V123.6L128.9,123.6z M128.9,110.2h15.2v10.6h-15.2V110.2L128.9,110.2z"/>
	<polygon class="st24" points="133.7,199.7 137.3,199.7 137.3,192 166,192 166,183.4 133.7,183.4 133.7,199.7 	"/>
	<polygon class="st25" points="136.5,186.3 163.2,186.3 163.2,192 137.3,192 137.3,196.8 136.5,196.8 136.5,186.3 	"/>
	<polygon class="st22" points="266.4,58.6 266.4,47.8 277.2,47.8 266.4,58.6 	"/>
	<polygon class="st19" points="249.9,20.9 264.1,20.9 264.1,25.4 249.9,25.4 249.9,20.9 	"/>
	<polygon class="st26" points="256.5,177.6 267.1,202.2 267.1,206.8 256.5,206.8 256.5,177.6 	"/>
	<path class="st27" d="M155.6,196.8l3.2-4.9h-6.7l-3.2,4.9H155.6L155.6,196.8z M147.1,196.8l3.2-4.9h-3.2l-3.2,4.9H147.1
		L147.1,196.8z"/>
	<path class="st28" d="M176.1,76.6l13.8-21l0,0l0,0c-0.1-0.1-0.1-0.1-0.2-0.2l-0.1,0c-0.1,0-0.1-0.1-0.2-0.1l-0.1,0
		c-0.1,0-0.1-0.1-0.2-0.1c0,0-0.1,0-0.1-0.1c-0.1,0-0.1-0.1-0.2-0.1c0,0-0.1,0-0.1-0.1c0,0-0.1-0.1-0.1-0.1c0,0-0.1-0.1-0.1-0.1
		c0,0-0.1-0.1-0.1-0.1c0,0-0.1-0.1-0.1-0.1c0,0-0.1,0-0.1-0.1c0,0-0.1-0.1-0.1-0.1c0,0-0.1,0-0.1-0.1c-0.1,0-0.1-0.1-0.2-0.1
		c0,0-0.1,0-0.1-0.1h0l-13.8,21l0,0c0,0,0.1,0.1,0.1,0.1c0,0,0.1,0.1,0.1,0.1c0,0,0.1,0.1,0.1,0.1c0,0,0.1,0,0.1,0.1
		c0,0,0.1,0.1,0.2,0.1c0,0,0.1,0,0.1,0.1c0.1,0,0.1,0.1,0.2,0.1c0,0,0.1,0,0.1,0.1c0.1,0,0.1,0.1,0.2,0.1l0.1,0
		c0.1,0,0.1,0.1,0.2,0.1l0,0l0,0c0.1,0,0.2,0.1,0.2,0.1l0,0l0,0c0.1,0,0.1,0.1,0.2,0.1l0,0C175.9,76.6,176,76.6,176.1,76.6
		L176.1,76.6L176.1,76.6z"/>
	<path class="st27" d="M185.8,77.5l8.8-13.3c-0.3-2.5-1.3-4.9-2.8-6.7l-13.2,20.1c1.1,0.3,2.3,0.5,3.5,0.5
		C183.3,78.1,184.6,77.9,185.8,77.5L185.8,77.5z"/>
	<polygon class="st29" points="218.6,116.5 245.4,116.5 245.4,177.6 218.6,177.6 218.6,116.5 	"/>
	<polygon class="st15" points="224.4,123.6 239.6,123.6 239.6,164 224.4,164 224.4,123.6 	"/>
	<path class="st30" d="M218.6,116.5h26.8v16.4c-8.8-1-16.9,1.4-24.4,6.8v37.9h-2.3V116.5L218.6,116.5z"/>
	<path class="st25" d="M224.4,123.6h15.2v9.1c-5.3,0.3-10.4,1.9-15.2,4.7V123.6L224.4,123.6z"/>
	<path class="st15" d="M155.6,123.6h15.2V164h-15.2V123.6L155.6,123.6z M155.6,110.2h15.2v10.6h-15.2V110.2L155.6,110.2z"/>
	<polygon class="st24" points="152.8,166.8 156.5,166.8 156.5,115.9 173.6,115.9 173.6,107.4 152.8,107.4 152.8,166.8 	"/>
	<path class="st25" d="M155.6,123.6h0.9V164h-0.9V123.6L155.6,123.6z M155.6,110.2h15.2v5.7h-14.3v4.9h-0.9V110.2L155.6,110.2z"/>
	<polygon class="st24" points="126.1,166.8 129.8,166.8 129.8,115.9 146.9,115.9 146.9,107.4 126.1,107.4 126.1,166.8 	"/>
	<path class="st25" d="M128.9,123.6h0.9V164h-0.9V123.6L128.9,123.6z M128.9,110.2h15.2v5.7h-14.3v4.9h-0.9V110.2L128.9,110.2z"/>
	<polygon class="st28" points="129.8,153.2 144.1,131.5 144.1,126.6 129.8,148.4 129.8,153.2 	"/>
	<polygon class="st27" points="131.4,164 144.1,144.7 144.1,134.8 129.8,156.6 129.8,164 131.4,164 	"/>
	<polygon class="st27" points="156.5,155.9 170.8,134.1 170.8,129.3 156.5,151 156.5,155.9 	"/>
	<polygon class="st28" points="160.6,164 170.8,148.6 170.8,137.7 156.5,159.5 156.5,164 160.6,164 	"/>
	<polygon class="st27" points="224.4,163.4 239.6,140.4 239.6,135.5 224.4,158.6 224.4,163.4 	"/>
	<polygon class="st27" points="234.1,164 239.6,155.6 239.6,144.2 226.6,164 234.1,164 	"/>
	<path class="st31" d="M158.8,192l3.8-5.7h-6.7l-3.8,5.7H158.8L158.8,192z M150.3,192l3.8-5.7h-3.2l-3.8,5.7H150.3L150.3,192z"/>
	<path class="st31" d="M156.5,159.5l-0.9,1.3v3.2h0.9V159.5L156.5,159.5z M155.6,157.2l0.9-1.3V151l-0.9,1.3V157.2L155.6,157.2z"/>
	<path class="st31" d="M129.8,156.6l-0.9,1.3v6.1h0.9V156.6L129.8,156.6z M128.9,154.5l0.9-1.3v-4.8l-0.9,1.3V154.5L128.9,154.5z"/>
	<polygon class="st32" points="317.8,47.8 392.1,47.8 392.1,116.5 347.5,116.5 317.8,47.8 	"/>
	<path class="st33" d="M376.8,116.5V47.8h2.2v68.8H376.8L376.8,116.5z M320,52.7v-4.9h2.2v10L320,52.7L320,52.7z M334.2,85.7V47.8
		h2.2v42.9L334.2,85.7L334.2,85.7z M348.4,116.5V47.8h2.2v68.8H348.4L348.4,116.5z M362.6,116.5V47.8h2.2v68.8H362.6L362.6,116.5z"
		/>
	<path class="st34" d="M234.6,60.6V47.8h2.2v14.4L234.6,60.6L234.6,60.6z M248.9,71.3V58.6h2.2v14.3L248.9,71.3L248.9,71.3z
		 M263.1,82V58.6h2.2v25L263.1,82L263.1,82z M277.3,92.8v-45h2.2v46.6L277.3,92.8L277.3,92.8z M291.5,109.9V47.8h2.2v67.1
		L291.5,109.9L291.5,109.9z M305.7,116.5V47.8h2.2v68.8H305.7L305.7,116.5z M320,116.5V52.7l2.2,5v58.8H320L320,116.5z M334.2,116.5
		V85.7l2.2,5v25.8H334.2L334.2,116.5z"/>
	<polygon class="st35" points="282,155.8 360,155.8 360,206.8 282,206.8 282,155.8 	"/>
	<path class="st36" d="M361.3,227.1c31.7,0,57.5,1.7,57.5,3.9s-25.7,3.9-57.5,3.9c-31.7,0-57.5-1.7-57.5-3.9
		S329.5,227.1,361.3,227.1L361.3,227.1z"/>
	<path class="st37" d="M376.4,166.6c2.5,0.4,3.1,1.6,3.9,4l6.8,18.9c0.9,2.5,1.9,5.4,1.9,8.6l0,10.9H307l0-10.9
		c0.1-3.2,1-6.2,1.9-8.6l6.8-18.9c0.9-2.4,1.4-3.6,3.9-4C340.2,163.3,355.8,163.3,376.4,166.6L376.4,166.6z M300.5,187.2h9.2
		l1.7-4.8l0,0l-3.5-2.9c-0.8-0.7-1.7-0.9-2.6-1h-4.8c-0.9,0-1.6,0.3-1.9,1.3c-0.5,1.7-0.7,3.6-0.3,5.7
		C298.5,186.6,299.1,187.2,300.5,187.2L300.5,187.2z"/>
	<path class="st38" d="M318.1,222.5v6.6c0,1-0.8,1.8-1.8,1.8h-8.9c-1,0-1.8-0.8-1.8-1.8v-21.4c0-0.9,0.6-1.6,1.4-1.8l0,3v6.5v2.2
		c0,2.6,2.1,4.7,4.7,4.7H318.1L318.1,222.5z"/>
	<path class="st39" d="M377.9,222.5v6.6c0,1,0.8,1.8,1.8,1.8h8.9c1,0,1.8-0.8,1.8-1.8v-21.4c0-0.9-0.6-1.6-1.4-1.8l0,3v6.5v2.2
		c0,2.6-2.1,4.7-4.7,4.7H377.9L377.9,222.5z"/>
	<path class="st40" d="M389,209v8.8c0,2.6-2.1,4.7-4.7,4.7h-72.8c-2.6,0-4.7-2.1-4.7-4.7V209H389L389,209z"/>
	<path class="st41" d="M389,209v6.5v2.2c0,2.6-2.1,4.7-4.7,4.7h-54.8l1.5-2.2h-19.4c-2.6,0-4.7-2.1-4.7-4.7V209h31.4l0,0l28.8-43.7
		c3,0.4,6,0.8,9.2,1.3c2.5,0.4,3.1,1.6,3.9,4l6.8,18.9c0.9,2.5,1.9,5.4,1.9,8.6L389,209L389,209L389,209z M395.5,187.2h-9.2
		l-1.7-4.8l0,0l3.5-2.9c0.8-0.7,1.7-0.9,2.6-1h4.8c0.9,0,1.6,0.3,1.9,1.3c0.5,1.7,0.7,3.6,0.3,5.7
		C397.5,186.6,396.9,187.2,395.5,187.2L395.5,187.2z"/>
	<path class="st38" d="M328.8,198.1h38.3c0.7,0,1.2,0.6,1.2,1.2v6.2c0,0.7-0.6,1.2-1.2,1.2h-38.3c-0.7,0-1.2-0.6-1.2-1.2v-6.2
		C327.6,198.6,328.2,198.1,328.8,198.1L328.8,198.1z"/>
	<path class="st42" d="M373.1,206.8l11.3-1.2c1-0.1,1.9-0.9,1.9-2l-0.1-3.6c0-2.8-2.9-3.2-3.8-2.9l-8.9,2.9c-1,0.3-1.8,0.9-1.9,2
		l-0.3,2.9C371.1,205.9,372.1,206.9,373.1,206.8L373.1,206.8z"/>
	<path class="st39" d="M345.6,198.1h21.6c0.7,0,1.2,0.6,1.2,1.2v6.2c0,0.7-0.6,1.2-1.2,1.2h-27.3L345.6,198.1L345.6,198.1z"/>
	<path class="st18" d="M322.9,206.8l-11.3-1.2c-1-0.1-1.9-0.9-1.9-2l0.1-3.6c0-2.8,2.9-3.2,3.8-2.9l8.9,2.9c1,0.3,1.8,0.9,1.9,2
		l0.3,2.9C324.9,205.9,323.9,206.9,322.9,206.8L322.9,206.8z"/>
	<path class="st43" d="M376,168.8c1.1,0.1,1.8,0.8,2.1,1.9l3.3,10h-9.5v-2.5c0-0.9-0.7-1.6-1.6-1.6h-11.5c-0.9,0-1.6,0.7-1.6,1.6
		v2.5h-18.1v-2.5c0-0.9-0.7-1.6-1.6-1.6h-11.5c-0.9,0-1.6,0.7-1.6,1.6v2.5h-9.5l3.3-10c0.3-1.1,1-1.8,2.1-1.9
		c9.3-0.7,18.7-1.1,28-1.1C357.3,167.7,366.7,168.1,376,168.8L376,168.8z"/>
	<path class="st44" d="M381.4,180.6l0.7,2.3c0.3,1.2,0,1.9-1.5,2.1c-10.8,0.7-21.7,1-32.6,1c-10.9,0-21.8-0.3-32.6-1
		c-1.4-0.1-1.8-0.9-1.5-2.1l0.7-2.3h9.5v-2.5c0-0.9,0.7-1.6,1.6-1.6h11.5c0.9,0,1.6,0.7,1.6,1.6v2.5h18.1v-2.5
		c0-0.9,0.7-1.6,1.6-1.6h11.5c0.9,0,1.6,0.7,1.6,1.6v2.5H381.4L381.4,180.6z"/>
	<path class="st45" d="M376,168.8c1.1,0.1,1.8,0.8,2.1,1.9l3.3,10h-9.5v-2.5c0-0.9-0.7-1.6-1.6-1.6h-11.5c-0.9,0-1.6,0.7-1.6,1.6
		v2.5h-13.3l8.5-12.9C360.2,167.8,368.1,168.2,376,168.8L376,168.8z"/>
	<path class="st46" d="M381.4,180.6l0.7,2.3c0.3,1.2,0,1.9-1.5,2.1c-10.8,0.7-21.7,1-32.6,1c-2.6,0-5.1,0-7.7-0.1l3.5-5.3h13.3v-2.5
		c0-0.9,0.7-1.6,1.6-1.6h11.5c0.9,0,1.6,0.7,1.6,1.6v2.5H381.4L381.4,180.6z"/>
	<path class="st45" d="M342,169.2H354c0.7,0,1.2,0.6,1.2,1.2v1c0,0.7-0.6,1.2-1.2,1.2H342c-0.7,0-1.2-0.6-1.2-1.2v-1
		C340.8,169.7,341.4,169.2,342,169.2L342,169.2z"/>
	<path class="st46" d="M351.3,169.2h2.6c0.7,0,1.2,0.6,1.2,1.2v1c0,0.7-0.6,1.2-1.2,1.2H349L351.3,169.2L351.3,169.2z"/>
	<path class="st43" d="M359.8,176.5h-1.1c-0.9,0-1.6,0.7-1.6,1.6v2.5h-9.3l8.4-12.8c3,0.1,6.1,0.2,9.1,0.3L359.8,176.5L359.8,176.5z
		"/>
	<path class="st44" d="M353.6,185.9c-1.9,0-3.7,0-5.6,0c-1.3,0-2.5,0-3.8,0l3.5-5.3h9.3v-2.5c0-0.9,0.7-1.6,1.6-1.6h1.1L353.6,185.9
		L353.6,185.9z"/>
	<path class="st45" d="M354.9,169.7c0.1,0.2,0.2,0.5,0.2,0.7v1c0,0.7-0.6,1.2-1.2,1.2h-1L354.9,169.7L354.9,169.7z"/>
	<path class="st38" d="M328.8,211.9h38.3c0.7,0,1.2,0.6,1.2,1.2v2.1c0,0.7-0.6,1.2-1.2,1.2h-38.3c-0.7,0-1.2-0.6-1.2-1.2v-2.1
		C327.6,212.5,328.2,211.9,328.8,211.9L328.8,211.9z"/>
	<path class="st18" d="M311,211.9h8.6c0.7,0,1.2,0.6,1.2,1.2v2.1c0,0.7-0.6,1.2-1.2,1.2H311c-0.7,0-1.2-0.6-1.2-1.2v-2.1
		C309.8,212.5,310.3,211.9,311,211.9L311,211.9z"/>
	<path class="st42" d="M376.4,211.9h8.6c0.7,0,1.2,0.6,1.2,1.2v2.1c0,0.7-0.6,1.2-1.2,1.2h-8.6c-0.7,0-1.2-0.6-1.2-1.2v-2.1
		C375.2,212.5,375.7,211.9,376.4,211.9L376.4,211.9z"/>
	<path class="st39" d="M336.5,211.9h30.7c0.7,0,1.2,0.6,1.2,1.2v2.1c0,0.7-0.6,1.2-1.2,1.2h-33.6L336.5,211.9L336.5,211.9z"/>
	<path class="st37" d="M395.5,187.2h-9.2l-1.7-4.8l0,0l3.5-2.9c0.8-0.7,1.7-0.9,2.6-1h4.8c0.9,0,1.6,0.3,1.9,1.3
		c0.5,1.7,0.7,3.6,0.3,5.7C397.5,186.6,396.9,187.2,395.5,187.2L395.5,187.2z"/>
	<path class="st47" d="M367.2,198.1c0.7,0,1.2,0.6,1.2,1.2v0.1l12.8-4.8c2.5-1,3.8-2.9,3-5.4l-2.1-6.4c0.3,1.2,0,1.9-1.5,2.1
		c-10.8,0.7-21.7,1-32.6,1c-10.9,0-21.8-0.3-32.6-1c-1.4-0.1-1.8-0.9-1.5-2.1l-2.1,6.4c-0.8,2.5,0.5,4.4,3,5.4l12.8,4.8v-0.1
		c0-0.7,0.6-1.2,1.2-1.2H348H367.2L367.2,198.1z"/>
	<path class="st37" d="M367.2,198.1c0.7,0,1.2,0.6,1.2,1.2v0.1l12.8-4.8c2.5-1,3.8-2.9,3-5.4l-2.1-6.4c0.3,1.2,0,1.9-1.5,2.1
		c-9,0.6-18,0.9-27.1,1l-8,12.2h2.4H367.2L367.2,198.1z"/>
	<path class="st47" d="M300.5,187.2h9.2l1.7-4.8l0,0l-3.5-2.9c-0.8-0.7-1.7-0.9-2.6-1h-4.8c-0.9,0-1.6,0.3-1.9,1.3
		c-0.5,1.7-0.7,3.6-0.3,5.7C298.5,186.6,299.1,187.2,300.5,187.2L300.5,187.2z"/>
	<polygon class="st19" points="176.7,100.3 182,107.4 199.9,93.9 199.9,155.5 176.7,100.3 	"/>
	<path class="st26" d="M124.9,176.9c-3.2,12.3-14.4,21.4-27.7,21.4l-0.3,0v-21.4H124.9L124.9,176.9z"/>
	<path class="st19" d="M99.8,141.1c14.6,1.3,26,13.6,26,28.6c0,2.5-0.3,5-0.9,7.3h-25V141.1L99.8,141.1z"/>
	<path class="st1" d="M92.5,131.5c15.8,0,28.6,12.8,28.6,28.7c0,15.8-12.8,28.7-28.6,28.7s-28.6-12.8-28.6-28.7
		C63.9,144.4,76.7,131.5,92.5,131.5L92.5,131.5z"/>
	<path class="st2" d="M103.4,167.6c15.1-3.5,10-30.1,17.3-12.1l0,0c0.3,1.6,0.4,3.1,0.4,4.8c0,15.8-12.8,28.7-28.6,28.7
		c-10.8,0-20.2-6-25.1-14.9l-0.1-0.1c-5.2-11,6.3,6.9,14.7,5.4C92.1,177.6,89.7,170.7,103.4,167.6L103.4,167.6z"/>
	<path class="st2" d="M98.5,160.8c1.1,0,2,1.4,2,3.2c0,1.8-0.9,1.1-2,1.1c-1.1,0-2,0.6-2-1.1C96.5,162.2,97.4,160.8,98.5,160.8
		L98.5,160.8z"/>
	<path class="st2" d="M106.4,155.7c1,0,1.8,1.3,1.8,2.9c0,1.6-0.8,1-1.8,1c-1,0-1.8,0.6-1.8-1C104.6,157.1,105.4,155.7,106.4,155.7
		L106.4,155.7z"/>
	<path class="st2" d="M98.9,147.2c1,0,1.8,1.3,1.8,2.9c0,1.6-0.8,1-1.8,1s-1.8,0.6-1.8-1C97.1,148.5,97.9,147.2,98.9,147.2
		L98.9,147.2z"/>
	<path class="st2" d="M81.8,141.8c1.1,0,2.1,1.5,2.1,3.3c0,1.8-0.9,1.2-2.1,1.2c-1.1,0-2.1,0.7-2.1-1.2
		C79.7,143.3,80.7,141.8,81.8,141.8L81.8,141.8z"/>
</g>
</svg>
