<?xml version="1.0" encoding="utf-8"?>
<!-- Generator: Adobe Illustrator 21.0.2, SVG Export Plug-In . SVG Version: 6.00 Build 0)  -->
<svg version="1.1" id="Layer_1" xmlns="http://www.w3.org/2000/svg" xmlns:xlink="http://www.w3.org/1999/xlink" x="0px" y="0px"
	 viewBox="0 0 51.8 52.4" style="enable-background:new 0 0 51.8 52.4;" xml:space="preserve">
<style type="text/css">
	.st0{fill:#0071BC;}
</style>
<path class="st0" d="M35.8,48.9V35.1l3.5-3.5v19c0,0.5-0.2,0.9-0.5,1.2c-0.3,0.3-0.8,0.5-1.2,0.5H1.6c-0.5,0-0.9-0.2-1.2-0.5
	C0.2,51.5,0,51.1,0,50.6V1.7c0-0.5,0.2-0.9,0.5-1.2C0.8,0.2,1.2,0,1.6,0h35.9c0.5,0,0.9,0.2,1.2,0.5c0.3,0.3,0.5,0.8,0.5,1.2v9.5
	l-3.5,3.5V3.5H3.4v45.4H35.8z M30.7,7.6c0.4,0,0.7,0.1,1,0.4C31.9,8.3,32,8.6,32,8.9c0,0.3-0.1,0.5-0.2,0.7
	c-0.1,0.2-0.3,0.4-0.5,0.5c-0.2,0.1-0.4,0.2-0.7,0.2H8.5c-0.3,0-0.6-0.1-0.9-0.4C7.3,9.6,7.2,9.3,7.2,8.9c0-0.4,0.1-0.7,0.4-1
	s0.6-0.4,0.9-0.4H30.7z M31.7,15c0.2,0.3,0.4,0.6,0.4,0.9c0,0.3-0.1,0.6-0.4,0.9c-0.2,0.3-0.6,0.4-1,0.4H8.5c-0.3,0-0.6-0.1-0.9-0.4
	c-0.3-0.3-0.4-0.6-0.4-0.9c0-0.3,0.1-0.6,0.4-0.9s0.6-0.4,0.9-0.4h22.2C31.1,14.6,31.4,14.8,31.7,15z M28.8,21.7l-2.7,2.7H8.5
	c-0.3,0-0.6-0.1-0.9-0.4c-0.3-0.3-0.4-0.6-0.4-0.9c0-0.3,0.1-0.5,0.2-0.7c0.1-0.2,0.3-0.4,0.5-0.5c0.2-0.1,0.4-0.2,0.6-0.2H28.8z
	 M21.5,30.4l-0.3,0.9H8.5c-0.3,0-0.6-0.1-0.9-0.4c-0.3-0.2-0.4-0.5-0.4-0.9c0-0.4,0.1-0.7,0.4-0.9c0.3-0.2,0.6-0.4,0.9-0.4h13.7
	C21.9,29.3,21.7,29.8,21.5,30.4z M8.5,35.7h11.5c-0.3,0.9-0.2,1.8,0.1,2.7H8.5c-0.3,0-0.6-0.1-0.9-0.4c-0.3-0.2-0.4-0.5-0.4-0.9
	c0-0.4,0.1-0.7,0.4-1C7.8,35.8,8.1,35.7,8.5,35.7z M48.1,8.9c1,0,1.5,0,1.5,0S50,9.3,50.7,10c0.7,0.7,1.1,1.6,1.1,2.6
	c0,1-0.3,1.9-1,2.7L31.2,34.8c-0.5,0.5-1.2,0.9-1.9,1.1L24,37.4h-0.1c-0.2,0-0.4-0.1-0.5-0.2c-0.1-0.1-0.2-0.3-0.1-0.6l1.5-5.2
	c0.2-0.7,0.6-1.3,1.1-1.8L45.5,10C46.2,9.3,47.1,8.9,48.1,8.9z"/>
</svg>
