<?xml version="1.0" encoding="utf-8"?>
<!-- Generator: Adobe Illustrator 21.0.2, SVG Export Plug-In . SVG Version: 6.00 Build 0)  -->
<svg version="1.1" id="Layer_1" xmlns="http://www.w3.org/2000/svg" xmlns:xlink="http://www.w3.org/1999/xlink" x="0px" y="0px"
	 viewBox="0 0 52.4 51.4" style="enable-background:new 0 0 52.4 51.4;" xml:space="preserve">
<style type="text/css">
	.st0{fill:#0071BC;}
</style>
<path class="st0" d="M34.7,39.7c2.3,2,3.3,3.7,3.1,5.1c-0.1,0.5-0.4,1-0.8,1.4h-0.1c-0.1,0.2-0.3,0.4-0.5,0.5c-1,0.9-2,1.7-3.1,2.4
	l-0.1,0.1c-2.7,1.8-5.6,2.5-8.9,2c-2.7-0.3-5.4-1.5-8.2-3.4C12.3,45.3,8.8,41.7,5.5,37C1.8,31.8,0,27.1,0,22.7c0-3.7,1.4-7,4.1-9.6
	c0.1-0.1,0.3-0.3,0.5-0.5h0.1c0.7-0.7,1.6-1.4,2.6-2.1C8,9.8,8.8,9.6,9.5,9.7c1.2,0.2,2.6,1.6,4.2,4.3c1.5,2.6,2.2,4.6,2,6
	c-0.1,0.9-0.8,1.8-1.9,2.8c-0.8,0.6-1.4,1.1-1.8,1.3c-1.2,0.8-1.8,1.4-2,1.9c-0.4,1.3,0,3,1.1,5c1.6,2.7,3.6,5.1,5.8,7.3
	c1.8,1.6,3.4,2.4,4.8,2.3c0.6,0,1.5-0.6,2.7-1.7c0.1-0.1,0.3-0.3,0.4-0.4h0.1c0.5-0.5,1-0.9,1.5-1.2c0.1-0.1,0.3-0.2,0.4-0.3
	c0.7-0.4,1.3-0.6,1.8-0.6C30.1,36.2,32.1,37.4,34.7,39.7z M29.9,0c6.2,0,11.5,2.2,15.9,6.5c4.4,4.4,6.6,9.6,6.6,15.9
	c0,4.4-1.2,8.5-3.5,12.1c-2.3,3.6-5.4,6.3-9.2,8.2c-0.3-0.9-0.9-1.8-1.7-2.9c3.3-1.6,5.9-3.9,8-7c2-3.1,3.1-6.6,3.1-10.4
	c0-5.2-1.9-9.7-5.6-13.4c-3.7-3.7-8.2-5.6-13.6-5.6c-3.1,0-6,0.7-8.6,2c-2.7,1.4-4.9,3.3-6.7,5.7c-0.8-1.1-1.5-1.9-2.3-2.6
	c2-2.7,4.6-4.8,7.7-6.3C23.1,0.8,26.4,0,29.9,0z M24.9,22.3c0.4-0.4,0.8-0.7,1.1-1.1c0.3-0.4,0.5-0.7,0.6-1c0.1-0.3,0.2-0.7,0.2-1.1
	c0-0.7-0.2-1.2-0.6-1.5c-0.4-0.3-0.9-0.5-1.6-0.5c-0.3,0-0.5,0.1-0.8,0.2c-0.2,0.1-0.5,0.3-0.7,0.5c-0.2,0.2-0.4,0.5-0.5,0.8
	c-0.1,0.3-0.2,0.7-0.3,1.1h-2.8c0.1-0.7,0.2-1.3,0.5-1.9c0.3-0.6,0.6-1.1,1-1.5c0.4-0.4,0.9-0.7,1.5-1c0.6-0.2,1.2-0.4,2-0.4
	c0.7,0,1.4,0.1,2,0.3c0.6,0.2,1.1,0.5,1.5,0.9s0.7,0.9,0.9,1.4c0.2,0.5,0.3,1.1,0.3,1.7c0,0.5-0.1,1.1-0.2,1.5
	c-0.1,0.5-0.3,1-0.6,1.4c-0.3,0.3-0.8,0.8-1.3,1.4c-0.5,0.6-1.3,1.2-2.1,1.9c-0.4,0.4-0.8,0.8-1.2,1.1c-0.3,0.3-0.6,0.5-0.8,0.7h6.4
	v2.6H19.4c0-1.2,0.3-2.3,0.9-3.2c0.3-0.3,0.6-0.8,1.1-1.3c0.5-0.5,1.1-1,1.8-1.6C23.9,23.2,24.5,22.7,24.9,22.3z M39.6,29.8h-2.8
	v-3.3H31v-2.1l6.4-9.5h2.1V24h1.8v2.5h-1.8V29.8z M34,24h2.9v-4.4L34,24z"/>
</svg>
