<?xml version="1.0" encoding="utf-8"?>
<!-- Generator: Adobe Illustrator 21.0.2, SVG Export Plug-In . SVG Version: 6.00 Build 0)  -->
<svg version="1.1" id="Layer_1" xmlns="http://www.w3.org/2000/svg" xmlns:xlink="http://www.w3.org/1999/xlink" x="0px" y="0px"
	 viewBox="0 0 57.8 49.8" style="enable-background:new 0 0 57.8 49.8;" xml:space="preserve">
<style type="text/css">
	.st0{fill:#0071BC;}
</style>
<path class="st0" d="M56.7,28.6c0.7,0.7,1,1.6,1,2.6c0,1-0.4,1.9-1.1,2.6c-0.7,0.7-1.6,1-2.6,1s-1.9-0.3-2.7-1l-1-1V46v3.8h-3.7H9.6
	H5.9V46V32.8l-1,1c-0.8,0.7-1.7,1-2.7,1c-1,0-1.9-0.3-2.6-1c-0.7-0.7-1.1-1.6-1.1-2.6c0-1,0.3-1.9,1-2.6L28.1,0L56.7,28.6z M17,5.9
	l-7.4,7.4V1.6H17V5.9z M46.6,46.1v-17L28.1,10.5L9.6,29.1v17H17V31.3h7.4v14.8H46.6z M31.8,38.7v-7.4h7.4v7.4H31.8z M31.8,38.7v-7.4
	h7.4v7.4H31.8z"/>
</svg>
