<?xml version="1.0" encoding="utf-8"?>
<!-- Generator: Adobe Illustrator 21.1.0, SVG Export Plug-In . SVG Version: 6.00 Build 0)  -->
<svg version="1.1" id="Layer_1" xmlns="http://www.w3.org/2000/svg" xmlns:xlink="http://www.w3.org/1999/xlink" x="0px" y="0px"
	 viewBox="0 0 805.2 250" style="enable-background:new 0 0 805.2 250;" xml:space="preserve">
<style type="text/css">
	.st0{fill:#FFFFFF;}
	.st1{fill:#C6D061;}
	.st2{fill:#9CA744;}
	.st3{fill:#757C38;}
	.st4{fill:#7C7470;}
	.st5{fill:#D2B174;}
	.st6{fill:#F9E6AE;}
	.st7{fill:#42403D;}
	.st8{fill:#BCBCBC;}
	.st9{fill:#6F3E33;}
	.st10{fill:#645F5C;}
	.st11{fill:#959595;}
	.st12{fill:#818181;}
	.st13{fill:#A9A9A9;}
	.st14{fill:#F0F0F0;}
	.st15{fill:#BDBDBD;}
	.st16{fill:#405662;}
	.st17{fill:#E7BF74;}
	.st18{fill:#F5F5F5;}
	.st19{fill:#B89966;}
	.st20{fill:#9F7E49;}
	.st21{fill:#A58859;}
	.st22{fill:#4A2C26;}
	.st23{fill:#77623A;}
	.st24{fill:#27343A;}
	.st25{fill:#4C4847;}
	.st26{fill:#759B99;}
	.st27{fill:#89B2B0;}
	.st28{fill:#7F4343;}
	.st29{fill:#5B3434;}
	.st30{fill:#4C6972;}
	.st31{fill:#8B5347;}
	.st32{fill:#9D6152;}
	.st33{fill:#282E31;}
	.st34{fill:#BBB9B1;}
	.st35{fill:#D67627;}
	.st36{fill:#4E4E4E;}
	.st37{fill:#252525;}
	.st38{fill:#CF8127;}
	.st39{fill:#AD5918;}
	.st40{fill:#B8D0CC;}
	.st41{fill:#CEECF8;}
	.st42{fill:#45576C;}
	.st43{fill:#75919C;}
	.st44{fill:#213443;}
	.st45{fill:#EBA956;}
</style>
<rect y="206.8" class="st0" width="805.2" height="43.2"/>
<g>
	<path class="st1" d="M436,65.9c33.9-31.4,77.4-8.4,79.8,26.2c3.3-3.2,10.7-6.6,19.3-6.7c8.6-0.1,22.5,6.1,28.5,15.4
		c15.5-13.2,35.4-18.7,54.3-13.1c25.3,7.5,41.2,32.6,41.5,61.3c15.7-6.2,35.3-0.1,42.9,14.6c2.2,4.1,3.5,8.7,4,13.4
		c2.8-1.6,6-2.5,9.4-2.5c10.6,0,19.1,8.6,19.1,19.1c0,5-1.9,9.6-5.1,13h-522c-9.1-11.8-14.5-26.3-14.5-42
		c0-32.8,23.4-60.4,55.1-68.5c-1.4-3.1-2.3-6.6-2.3-10.2c0-13.4,10.8-24.2,24.1-24.2c2,0,4,0.3,5.9,0.7c-0.5-2.9-0.7-5.8-0.7-8.8
		c0-29.7,24-53.7,53.6-53.7c25.3,0,46.5,17.6,52.1,41.3c5.8-5.5,13.6-8.8,22.3-8.8c18,0,32.5,14.6,32.5,32.6
		C436,65.4,436,65.6,436,65.9L436,65.9z"/>
	<path class="st1" d="M185.3,45.8c15.2,2,25.9,15.9,23.9,31.2c-1.7,12.9-11.9,22.6-24.3,24.1c4.1,7.1,6,15.5,4.9,24.3
		c-2.7,21-22,35.9-43,33.2s-35.8-22-33-43c2.8-20.6,21.2-35.2,41.6-33.4c-1.3-3.9-1.7-8-1.2-12.3C156.2,54.6,170.1,43.9,185.3,45.8
		L185.3,45.8z"/>
	<path class="st2" d="M86.4,178c4.5,0,8.5,1.8,11.4,4.8c3.2-8.1,11-13.9,20.3-13.9c12,0,21.7,9.8,21.7,21.8c0,6.4-2.7,12.1-7.1,16.1
		c-22.5,0-35.2,0-56.4,0c-3.7-3-6.1-7.5-6.1-12.6C70.3,185.3,77.5,178,86.4,178L86.4,178z"/>
	<path class="st3" d="M92.7,199.6c2.1-0.3,3.4-1.6,4.4-3.2l0,0c-0.3-1.2-0.6-2.5-0.7-3.8c0.2-6.5,7.3,6.9,13.7,7.7
		c9.9,1.2,5.8-1.7,16.2-4.1c11.5-2.6,7.6-22.9,13.1-9.2l0,0c0.2,1.2,0.3,2.4,0.3,3.6c0,6.4-2.7,12.1-7.1,16.1H76.4
		c-1.7-1.3-3.1-3-4.1-4.9v-0.1c-2.9-6.2,3.6,3.9,8.3,3C86.1,203.9,84.9,200.7,92.7,199.6L92.7,199.6z"/>
	<path class="st3" d="M120.8,187.8c1,0,1.8,1.3,1.8,2.9c0,1.6-0.8,1-1.8,1s-1.8,0.6-1.8-1C119,189.1,119.8,187.8,120.8,187.8
		L120.8,187.8z"/>
	<path class="st3" d="M127.4,182.6c1,0,1.8,1.3,1.8,2.9c0,1.6-0.8,1-1.8,1s-1.8,0.6-1.8-1S126.4,182.6,127.4,182.6L127.4,182.6z"/>
	<path class="st3" d="M120.8,176.2c1,0,1.8,1.3,1.8,2.9c0,1.6-0.8,1-1.8,1s-1.8,0.6-1.8-1C119,177.5,119.8,176.2,120.8,176.2
		L120.8,176.2z"/>
	<path class="st2" d="M669.8,173.8c11.4,0,20.7,9.3,20.7,20.8c0,4.6-1.5,8.8-4,12.2H471.4c-5.8-6.6-9.4-15.3-9.4-24.8
		c0-20.7,16.7-37.4,37.3-37.4c8,0,15.5,2.6,21.6,6.9c5.5-21.6,25-37.6,48.2-37.6c21.7,0,40.1,13.9,46.9,33.3
		c24.3-12.3,49.2,5.4,49.8,27.1C667.1,173.9,668.4,173.8,669.8,173.8L669.8,173.8z"/>
	<path class="st3" d="M676,196.9c7.8,0,2.1-21.8,14-7.2c0.4,1.6,0.6,3.2,0.6,4.8c0,4.6-1.5,8.8-4,12.2h-22.1
		C663.3,203.6,666.3,196.8,676,196.9L676,196.9z"/>
	<path class="st3" d="M633.9,173.8c1.2,0,2.1,1.5,2.1,3.4s-0.9,1.2-2.1,1.2c-1.2,0-2.1,0.7-2.1-1.2S632.8,173.8,633.9,173.8
		L633.9,173.8z"/>
	<path class="st3" d="M620.8,179.2c1.3,0,2.3,1.4,2.3,3.1c0,1.7-1,0.7-2.3,0.7s-2.3,1-2.3-0.7S619.5,179.2,620.8,179.2L620.8,179.2z
		"/>
	<path class="st3" d="M627,164c1,0,1.8,1.3,1.8,2.9c0,1.6-0.8,1-1.8,1s-1.8,0.6-1.8-1C625.1,165.3,626,164,627,164L627,164z"/>
	<path class="st3" d="M603,132.6c1.1,0,2,1.5,2,3.3s-0.9,1.2-2,1.2s-2,0.7-2-1.2C601,134,601.9,132.6,603,132.6L603,132.6z"/>
	<path class="st3" d="M595.8,138c1.2,0,2.1,1.5,2.1,3.4s-0.9,1.2-2.1,1.2c-1.2,0-2.1,0.7-2.1-1.2S594.6,138,595.8,138L595.8,138z"/>
	<path class="st3" d="M592.1,127.3c0.9,0,1.6,1.2,1.6,2.6c0,1.4-0.7,0.9-1.6,0.9c-0.9,0-1.6,0.5-1.6-0.9
		C590.5,128.4,591.2,127.3,592.1,127.3L592.1,127.3z"/>
	<path class="st3" d="M662.8,194c1,0,1.8,1.3,1.8,2.8c0,1.6-0.8,1-1.8,1s-1.8,0.6-1.8-1C661,195.3,661.8,194,662.8,194L662.8,194z"
		/>
	<path class="st3" d="M512.4,193.5c4-0.5,12.8,2.9,12.1-6.7l0,0c-0.6-2.4-1.1-4.8-1.3-7.3c0.4-12.6,14.1,13.4,26.6,14.9
		c19.2,2.3,10.9-10.6,31.4-7.9c7,0.9,12.5-4.4,12.5-10.1c-5.2-3.4-10.9-29.7,3.3-29.7c8,0,12.6-11.3,19,0.5
		c-10.5,6.6-17.9,16.5-20.8,29.5c-0.3,3.4-0.3,6.7,0.3,9.9c3.8,8.8,16.4,11.8,20.6,3.8c2.9-5.6,13.2-0.5,19.2-2.6
		c8.9-3.1,9.5-19.7,19.7-8.9c-7.3,5.8-14.6,16-8.2,27.8h-39.5h-1.1H471.4l0,0c-3.5-3.9-6.2-8.6-7.7-13.8c2.7-1.6,17,9,24.3,7.8
		C498.9,198.9,497.3,195.4,512.4,193.5L512.4,193.5z M594.8,176.7c0.1,0.1,0.3,0.1,0.3,0C595.1,176.7,595,176.7,594.8,176.7
		L594.8,176.7z"/>
	<path class="st3" d="M509.2,168.1c1.2,0,2.1,1.5,2.1,3.4s-0.9,1.2-2.1,1.2s-2.1,0.7-2.1-1.2S508,168.1,509.2,168.1L509.2,168.1z"/>
	<path class="st3" d="M513.9,157c0.9,0,1.7,1.2,1.7,2.7s-0.8,1-1.7,1s-1.7,0.5-1.7-1C512.2,158.3,513,157,513.9,157L513.9,157z"/>
	<path class="st3" d="M503.9,157c0.9,0,1.7,1.2,1.7,2.7s-0.8,1-1.7,1c-0.9,0-1.7,0.5-1.7-1C502.2,158.3,503,157,503.9,157L503.9,157
		z"/>
	<path class="st3" d="M476.9,186.5c1.2,0,2.1,1.5,2.1,3.4s-0.9,1.2-2.1,1.2s-2.1,0.7-2.1-1.2C474.8,188.1,475.7,186.5,476.9,186.5
		L476.9,186.5z"/>
	<polygon class="st4" points="167.2,177.6 267.3,177.6 267.3,206.8 167.2,206.8 	"/>
	<polygon class="st5" points="204,183.4 236.3,183.4 236.3,199.7 204,199.7 	"/>
	<path class="st6" d="M170.1,93.9L252.3,32L295,64.1l-48,36.2l5.3,7.1l17.9-13.5v83.7h-100L170.1,93.9L170.1,93.9z M280.8,177.6
		h43.1v-70.2c-16.4-9.7-30.5-9-43.1,0V177.6L280.8,177.6z"/>
	<path class="st5" d="M252.3,50c8.5,0,15.5,6.9,15.5,15.5c0,8.5-6.9,15.5-15.5,15.5c-8.6,0-15.5-6.9-15.5-15.5S243.8,50,252.3,50
		L252.3,50z"/>
	<polygon class="st6" points="448.2,123.6 448.2,177.6 430.3,177.6 430.3,139.7 352.3,139.7 352.3,177.6 334.4,177.6 334.4,123.6 	
		"/>
	<polygon class="st7" points="337.4,177.6 352.3,177.6 352.3,206.8 337.4,206.8 	"/>
	<polygon class="st8" points="334.4,116.5 462.4,116.5 462.4,123.6 334.4,123.6 	"/>
	<polygon class="st9" points="287.9,47.8 318,47.8 318,58.6 336.7,58.6 336.7,47.8 462.4,47.8 462.4,116.5 334.4,116.5 334.4,93.9 
		352.3,107.4 357.7,100.3 	"/>
	<polygon class="st10" points="326.8,177.6 337.4,177.6 337.4,206.8 326.8,206.8 	"/>
	<polygon class="st10" points="267.3,177.6 277.9,177.6 277.9,206.8 267.3,206.8 	"/>
	<polygon class="st4" points="430.3,177.6 451.1,177.6 451.1,206.8 430.3,206.8 	"/>
	<polygon class="st11" points="277.9,206.8 326.8,206.8 326.8,200.9 277.9,200.9 	"/>
	<polygon class="st12" points="277.9,200.9 326.8,200.9 326.8,195.1 277.9,195.1 	"/>
	<polygon class="st13" points="277.9,195.1 326.8,195.1 326.8,189.3 277.9,189.3 	"/>
	<polygon class="st11" points="277.9,189.3 326.8,189.3 326.8,183.4 277.9,183.4 	"/>
	<polygon class="st14" points="302.3,58.6 252.3,20.9 146.9,100.3 152.2,107.4 252.3,32 294.9,64.2 	"/>
	<polygon class="st6" points="320.2,20.9 334.4,20.9 334.4,38.7 320.2,38.7 	"/>
	<polygon class="st15" points="277.9,183.4 326.8,183.4 326.8,177.6 277.9,177.6 	"/>
	<path class="st16" d="M252.3,52.8c7,0,12.6,5.7,12.6,12.6s-5.6,12.7-12.6,12.7c-7,0-12.6-5.7-12.6-12.6S245.3,52.8,252.3,52.8
		L252.3,52.8z"/>
	<polygon class="st17" points="318,15.6 336.7,15.6 336.7,20.9 318,20.9 	"/>
	<polygon class="st6" points="320.2,10.4 334.4,10.4 334.4,15.6 320.2,15.6 	"/>
	<polygon class="st17" points="318,38.7 336.7,38.7 336.7,58.6 318,58.6 	"/>
	<polygon class="st5" points="223.1,166.8 243.9,166.8 243.9,107.4 223.1,107.4 	"/>
	<polygon class="st16" points="206.8,186.3 233.5,186.3 233.5,196.8 206.8,196.8 	"/>
	<polygon class="st5" points="196.4,166.8 217.2,166.8 217.2,107.4 196.4,107.4 	"/>
	<polygon class="st18" points="352.3,139.7 430.3,139.7 430.3,155.8 352.3,155.8 	"/>
	<path class="st17" d="M270.2,93.9l32.1-24.2l32.1,24.2v83.7h-64.3V93.9H270.2z M280.8,177.6h43.1v-70.2c-16.4-9.7-30.5-9-43.1,0
		V177.6L280.8,177.6z"/>
	<polygon class="st0" points="357.7,100.3 302.3,58.6 302.3,58.6 247,100.3 252.3,107.4 302.3,69.7 352.3,107.4 	"/>
	<path class="st19" d="M170.1,93.9L252.3,32L295,64.1l-5.3,4l-32.5-24.5l-9.2,6.9c-3.7,1.1-6.8,3.5-8.8,6.6l-69.1,52.1V93.9
		L170.1,93.9z"/>
	<polygon class="st20" points="270.2,93.9 302.3,69.7 334.4,93.8 334.4,101.8 307.3,81.3 270.2,109.3 	"/>
	<path class="st21" d="M280.8,177.6h10.5v-37.9c9.8-7,20.5-9,32.6-4.9v-27.4c-16.4-9.7-30.5-9-43.1,0V177.6L280.8,177.6z"/>
	<polygon class="st19" points="448.2,123.6 448.2,133.3 371.9,133.3 374.6,139.7 352.3,139.7 352.3,177.6 334.4,177.6 334.4,123.6 	
		"/>
	<polygon class="st8" points="352.3,139.7 430.3,139.7 430.3,145.7 377.2,145.7 381.6,155.8 352.3,155.8 	"/>
	<polygon class="st22" points="364.7,116.5 334.4,116.5 334.4,93.9 352.3,107.4 357.7,100.3 	"/>
	<path class="st9" d="M361.8,116.5v-6.6l2.2,5v1.6H361.8L361.8,116.5z M347.6,116.5v-12.7l2.2,1.6v11.1H347.6L347.6,116.5z"/>
	<path class="st23" d="M252.3,50c1.9,0,3.8,0.4,5.5,1l-20.9,15.7c0-0.4-0.1-0.9-0.1-1.3C236.8,56.9,243.8,50,252.3,50L252.3,50z"/>
	<path class="st24" d="M252.3,52.8c0.9,0,1.8,0.1,2.7,0.3l-15.3,11.5C240.1,58.1,245.6,52.8,252.3,52.8L252.3,52.8z"/>
	<path class="st16" d="M199.2,123.6h15.2V164h-15.2V123.6L199.2,123.6z M199.2,110.2h15.2v10.6h-15.2V110.2L199.2,110.2z"/>
	<polygon class="st23" points="204,199.7 207.6,199.7 207.6,192 236.3,192 236.3,183.4 204,183.4 	"/>
	<polygon class="st24" points="206.8,186.3 233.5,186.3 233.5,192 207.6,192 207.6,196.8 206.8,196.8 	"/>
	<polygon class="st22" points="336.7,58.6 336.7,47.8 347.5,47.8 	"/>
	<polygon class="st19" points="320.2,20.9 334.4,20.9 334.4,25.4 320.2,25.4 	"/>
	<polygon class="st25" points="326.8,177.6 337.4,202.2 337.4,206.8 326.8,206.8 	"/>
	<path class="st26" d="M225.9,196.8l3.2-4.9h-6.7l-3.2,4.9H225.9L225.9,196.8z M217.4,196.8l3.2-4.9h-3.2l-3.2,4.9H217.4
		L217.4,196.8z"/>
	<path class="st27" d="M246.4,76.6l13.8-21l0,0l0,0c-0.1-0.1-0.1-0.1-0.2-0.2h-0.1c-0.1,0-0.1-0.1-0.2-0.1h-0.1
		c-0.1,0-0.1-0.1-0.2-0.1c0,0-0.1,0-0.1-0.1c-0.1,0-0.1-0.1-0.2-0.1c0,0-0.1,0-0.1-0.1l-0.1-0.1l-0.1-0.1l-0.1-0.1l-0.1-0.1
		c0,0-0.1,0-0.1-0.1l-0.1-0.1c0,0-0.1,0-0.1-0.1c-0.1,0-0.1-0.1-0.2-0.1c0,0-0.1,0-0.1-0.1l0,0l-13.8,21l0,0l0.1,0.1l0.1,0.1
		l0.1,0.1c0,0,0.1,0,0.1,0.1c0,0,0.1,0.1,0.2,0.1c0,0,0.1,0,0.1,0.1c0.1,0,0.1,0.1,0.2,0.1c0,0,0.1,0,0.1,0.1c0.1,0,0.1,0.1,0.2,0.1
		h0.1c0.1,0,0.1,0.1,0.2,0.1l0,0l0,0c0.1,0,0.2,0.1,0.2,0.1l0,0l0,0c0.1,0,0.1,0.1,0.2,0.1l0,0C246.2,76.6,246.3,76.6,246.4,76.6
		L246.4,76.6L246.4,76.6z"/>
	<path class="st26" d="M256.1,77.5l8.8-13.3c-0.3-2.5-1.3-4.9-2.8-6.7l-13.2,20.1c1.1,0.3,2.3,0.5,3.5,0.5S254.9,77.9,256.1,77.5
		L256.1,77.5z"/>
	<polygon class="st28" points="288.9,116.5 315.7,116.5 315.7,177.6 288.9,177.6 	"/>
	<polygon class="st16" points="294.7,123.6 309.9,123.6 309.9,164 294.7,164 	"/>
	<path class="st29" d="M288.9,116.5h26.8v16.4c-8.8-1-16.9,1.4-24.4,6.8v37.9H289v-61.1H288.9z"/>
	<path class="st24" d="M294.7,123.6h15.2v9.1c-5.3,0.3-10.4,1.9-15.2,4.7V123.6L294.7,123.6z"/>
	<path class="st16" d="M225.9,123.6h15.2V164h-15.2V123.6L225.9,123.6z M225.9,110.2h15.2v10.6h-15.2V110.2L225.9,110.2z"/>
	<polygon class="st23" points="223.1,166.8 226.8,166.8 226.8,115.9 243.9,115.9 243.9,107.4 223.1,107.4 	"/>
	<path class="st24" d="M225.9,123.6h0.9V164h-0.9V123.6L225.9,123.6z M225.9,110.2h15.2v5.7h-14.3v4.9h-0.9V110.2L225.9,110.2z"/>
	<polygon class="st23" points="196.4,166.8 200.1,166.8 200.1,115.9 217.2,115.9 217.2,107.4 196.4,107.4 	"/>
	<path class="st24" d="M199.2,123.6h0.9V164h-0.9V123.6L199.2,123.6z M199.2,110.2h15.2v5.7h-14.3v4.9h-0.9V110.2L199.2,110.2z"/>
	<polygon class="st27" points="200.1,153.2 214.4,131.5 214.4,126.6 200.1,148.4 	"/>
	<polygon class="st26" points="201.7,164 214.4,144.7 214.4,134.8 200.1,156.6 200.1,164 	"/>
	<polygon class="st26" points="226.8,155.9 241.1,134.1 241.1,129.3 226.8,151 	"/>
	<polygon class="st27" points="230.9,164 241.1,148.6 241.1,137.7 226.8,159.5 226.8,164 	"/>
	<polygon class="st26" points="294.7,163.4 309.9,140.4 309.9,135.5 294.7,158.6 	"/>
	<polygon class="st26" points="304.4,164 309.9,155.6 309.9,144.2 296.9,164 	"/>
	<path class="st30" d="M229.1,192l3.8-5.7h-6.7l-3.8,5.7H229.1L229.1,192z M220.6,192l3.8-5.7h-3.2l-3.8,5.7H220.6L220.6,192z"/>
	<path class="st30" d="M226.8,159.5l-0.9,1.3v3.2h0.9V159.5L226.8,159.5z M225.9,157.2l0.9-1.3V151l-0.9,1.3V157.2L225.9,157.2z"/>
	<path class="st30" d="M200.1,156.6l-0.9,1.3v6.1h0.9V156.6L200.1,156.6z M199.2,154.5l0.9-1.3v-4.8l-0.9,1.3V154.5L199.2,154.5z"/>
	<polygon class="st31" points="388.1,47.8 462.4,47.8 462.4,116.5 417.8,116.5 	"/>
	<path class="st32" d="M447.1,116.5V47.8h2.2v68.8h-2.2V116.5z M390.3,52.7v-4.9h2.2v10L390.3,52.7L390.3,52.7z M404.5,85.7V47.8
		h2.2v42.9L404.5,85.7L404.5,85.7z M418.7,116.5V47.8h2.2v68.8h-2.2V116.5z M432.9,116.5V47.8h2.2v68.8h-2.2V116.5z"/>
	<path class="st31" d="M304.9,60.6V47.8h2.2v14.4L304.9,60.6L304.9,60.6z M319.2,71.3V58.6h2.2v14.3L319.2,71.3L319.2,71.3z
		 M333.4,82V58.6h2.2v25L333.4,82L333.4,82z M347.6,92.8v-45h2.2v46.6L347.6,92.8L347.6,92.8z M361.8,109.9V47.8h2.2v67.1
		L361.8,109.9L361.8,109.9z M376,116.5V47.8h2.2v68.8H376V116.5z M390.3,116.5V52.7l2.2,5v58.8H390.3L390.3,116.5z M404.5,116.5
		V85.7l2.2,5v25.8H404.5L404.5,116.5z"/>
	<polygon class="st33" points="352.3,155.8 430.3,155.8 430.3,206.8 352.3,206.8 	"/>
	<path class="st34" d="M431.6,227.1c31.7,0,57.5,1.7,57.5,3.9s-25.7,3.9-57.5,3.9c-31.7,0-57.5-1.7-57.5-3.9
		S399.8,227.1,431.6,227.1L431.6,227.1z"/>
	<path class="st35" d="M446.7,166.6c2.5,0.4,3.1,1.6,3.9,4l6.8,18.9c0.9,2.5,1.9,5.4,1.9,8.6V209h-82v-10.9c0.1-3.2,1-6.2,1.9-8.6
		l6.8-18.9c0.9-2.4,1.4-3.6,3.9-4C410.5,163.3,426.1,163.3,446.7,166.6L446.7,166.6z M370.8,187.2h9.2l1.7-4.8l0,0l-3.5-2.9
		c-0.8-0.7-1.7-0.9-2.6-1h-4.8c-0.9,0-1.6,0.3-1.9,1.3c-0.5,1.7-0.7,3.6-0.3,5.7C368.8,186.6,369.4,187.2,370.8,187.2L370.8,187.2z"
		/>
	<path class="st36" d="M388.4,222.5v6.6c0,1-0.8,1.8-1.8,1.8h-8.9c-1,0-1.8-0.8-1.8-1.8v-21.4c0-0.9,0.6-1.6,1.4-1.8v3v6.5v2.2
		c0,2.6,2.1,4.7,4.7,4.7h6.4V222.5z"/>
	<path class="st37" d="M448.2,222.5v6.6c0,1,0.8,1.8,1.8,1.8h8.9c1,0,1.8-0.8,1.8-1.8v-21.4c0-0.9-0.6-1.6-1.4-1.8v3v6.5v2.2
		c0,2.6-2.1,4.7-4.7,4.7h-6.4V222.5z"/>
	<path class="st38" d="M459.3,209v8.8c0,2.6-2.1,4.7-4.7,4.7h-72.8c-2.6,0-4.7-2.1-4.7-4.7V209H459.3L459.3,209z"/>
	<path class="st39" d="M459.3,209v6.5v2.2c0,2.6-2.1,4.7-4.7,4.7h-54.8l1.5-2.2h-19.4c-2.6,0-4.7-2.1-4.7-4.7V209h31.4l0,0
		l28.8-43.7c3,0.4,6,0.8,9.2,1.3c2.5,0.4,3.1,1.6,3.9,4l6.8,18.9c0.9,2.5,1.9,5.4,1.9,8.6L459.3,209L459.3,209L459.3,209z
		 M465.8,187.2h-9.2l-1.7-4.8l0,0l3.5-2.9c0.8-0.7,1.7-0.9,2.6-1h4.8c0.9,0,1.6,0.3,1.9,1.3c0.5,1.7,0.7,3.6,0.3,5.7
		C467.8,186.6,467.2,187.2,465.8,187.2L465.8,187.2z"/>
	<path class="st36" d="M399.1,198.1h38.3c0.7,0,1.2,0.6,1.2,1.2v6.2c0,0.7-0.6,1.2-1.2,1.2h-38.3c-0.7,0-1.2-0.6-1.2-1.2v-6.2
		C397.9,198.6,398.5,198.1,399.1,198.1L399.1,198.1z"/>
	<path class="st40" d="M443.4,206.8l11.3-1.2c1-0.1,1.9-0.9,1.9-2l-0.1-3.6c0-2.8-2.9-3.2-3.8-2.9l-8.9,2.9c-1,0.3-1.8,0.9-1.9,2
		l-0.3,2.9C441.4,205.9,442.4,206.9,443.4,206.8L443.4,206.8z"/>
	<path class="st37" d="M415.9,198.1h21.6c0.7,0,1.2,0.6,1.2,1.2v6.2c0,0.7-0.6,1.2-1.2,1.2h-27.3L415.9,198.1L415.9,198.1z"/>
	<path class="st0" d="M393.2,206.8l-11.3-1.2c-1-0.1-1.9-0.9-1.9-2l0.1-3.6c0-2.8,2.9-3.2,3.8-2.9l8.9,2.9c1,0.3,1.8,0.9,1.9,2
		l0.3,2.9C395.2,205.9,394.2,206.9,393.2,206.8L393.2,206.8z"/>
	<path class="st41" d="M446.3,168.8c1.1,0.1,1.8,0.8,2.1,1.9l3.3,10h-9.5v-2.5c0-0.9-0.7-1.6-1.6-1.6h-11.5c-0.9,0-1.6,0.7-1.6,1.6
		v2.5h-18.1v-2.5c0-0.9-0.7-1.6-1.6-1.6h-11.5c-0.9,0-1.6,0.7-1.6,1.6v2.5h-9.5l3.3-10c0.3-1.1,1-1.8,2.1-1.9
		c9.3-0.7,18.7-1.1,28-1.1C427.6,167.7,437,168.1,446.3,168.8L446.3,168.8z"/>
	<path class="st42" d="M451.7,180.6l0.7,2.3c0.3,1.2,0,1.9-1.5,2.1c-10.8,0.7-21.7,1-32.6,1s-21.8-0.3-32.6-1
		c-1.4-0.1-1.8-0.9-1.5-2.1l0.7-2.3h9.5v-2.5c0-0.9,0.7-1.6,1.6-1.6h11.5c0.9,0,1.6,0.7,1.6,1.6v2.5h18.1v-2.5
		c0-0.9,0.7-1.6,1.6-1.6h11.5c0.9,0,1.6,0.7,1.6,1.6v2.5H451.7L451.7,180.6z"/>
	<path class="st43" d="M446.3,168.8c1.1,0.1,1.8,0.8,2.1,1.9l3.3,10h-9.5v-2.5c0-0.9-0.7-1.6-1.6-1.6h-11.5c-0.9,0-1.6,0.7-1.6,1.6
		v2.5h-13.3l8.5-12.9C430.5,167.8,438.4,168.2,446.3,168.8L446.3,168.8z"/>
	<path class="st44" d="M451.7,180.6l0.7,2.3c0.3,1.2,0,1.9-1.5,2.1c-10.8,0.7-21.7,1-32.6,1c-2.6,0-5.1,0-7.7-0.1l3.5-5.3h13.3v-2.5
		c0-0.9,0.7-1.6,1.6-1.6h11.5c0.9,0,1.6,0.7,1.6,1.6v2.5H451.7L451.7,180.6z"/>
	<path class="st43" d="M412.3,169.2h12c0.7,0,1.2,0.6,1.2,1.2v1c0,0.7-0.6,1.2-1.2,1.2h-12c-0.7,0-1.2-0.6-1.2-1.2v-1
		C411.1,169.7,411.7,169.2,412.3,169.2L412.3,169.2z"/>
	<path class="st44" d="M421.6,169.2h2.6c0.7,0,1.2,0.6,1.2,1.2v1c0,0.7-0.6,1.2-1.2,1.2h-4.9L421.6,169.2L421.6,169.2z"/>
	<path class="st41" d="M430.1,176.5H429c-0.9,0-1.6,0.7-1.6,1.6v2.5h-9.3l8.4-12.8c3,0.1,6.1,0.2,9.1,0.3L430.1,176.5L430.1,176.5z"
		/>
	<path class="st42" d="M423.9,185.9c-1.9,0-3.7,0-5.6,0c-1.3,0-2.5,0-3.8,0l3.5-5.3h9.3v-2.5c0-0.9,0.7-1.6,1.6-1.6h1.1L423.9,185.9
		L423.9,185.9z"/>
	<path class="st43" d="M425.2,169.7c0.1,0.2,0.2,0.5,0.2,0.7v1c0,0.7-0.6,1.2-1.2,1.2h-1L425.2,169.7L425.2,169.7z"/>
	<path class="st36" d="M399.1,211.9h38.3c0.7,0,1.2,0.6,1.2,1.2v2.1c0,0.7-0.6,1.2-1.2,1.2h-38.3c-0.7,0-1.2-0.6-1.2-1.2v-2.1
		C397.9,212.5,398.5,211.9,399.1,211.9L399.1,211.9z"/>
	<path class="st0" d="M381.3,211.9h8.6c0.7,0,1.2,0.6,1.2,1.2v2.1c0,0.7-0.6,1.2-1.2,1.2h-8.6c-0.7,0-1.2-0.6-1.2-1.2v-2.1
		C380.1,212.5,380.6,211.9,381.3,211.9L381.3,211.9z"/>
	<path class="st40" d="M446.7,211.9h8.6c0.7,0,1.2,0.6,1.2,1.2v2.1c0,0.7-0.6,1.2-1.2,1.2h-8.6c-0.7,0-1.2-0.6-1.2-1.2v-2.1
		C445.5,212.5,446,211.9,446.7,211.9L446.7,211.9z"/>
	<path class="st37" d="M406.8,211.9h30.7c0.7,0,1.2,0.6,1.2,1.2v2.1c0,0.7-0.6,1.2-1.2,1.2h-33.6L406.8,211.9L406.8,211.9z"/>
	<path class="st35" d="M465.8,187.2h-9.2l-1.7-4.8l0,0l3.5-2.9c0.8-0.7,1.7-0.9,2.6-1h4.8c0.9,0,1.6,0.3,1.9,1.3
		c0.5,1.7,0.7,3.6,0.3,5.7C467.8,186.6,467.2,187.2,465.8,187.2L465.8,187.2z"/>
	<path class="st45" d="M437.5,198.1c0.7,0,1.2,0.6,1.2,1.2v0.1l12.8-4.8c2.5-1,3.8-2.9,3-5.4l-2.1-6.4c0.3,1.2,0,1.9-1.5,2.1
		c-10.8,0.7-21.7,1-32.6,1s-21.8-0.3-32.6-1c-1.4-0.1-1.8-0.9-1.5-2.1l-2.1,6.4c-0.8,2.5,0.5,4.4,3,5.4l12.8,4.8v-0.1
		c0-0.7,0.6-1.2,1.2-1.2h19.2H437.5L437.5,198.1z"/>
	<path class="st35" d="M437.5,198.1c0.7,0,1.2,0.6,1.2,1.2v0.1l12.8-4.8c2.5-1,3.8-2.9,3-5.4l-2.1-6.4c0.3,1.2,0,1.9-1.5,2.1
		c-9,0.6-18,0.9-27.1,1l-8,12.2h2.4L437.5,198.1L437.5,198.1z"/>
	<path class="st45" d="M370.8,187.2h9.2l1.7-4.8l0,0l-3.5-2.9c-0.8-0.7-1.7-0.9-2.6-1h-4.8c-0.9,0-1.6,0.3-1.9,1.3
		c-0.5,1.7-0.7,3.6-0.3,5.7C368.8,186.6,369.4,187.2,370.8,187.2L370.8,187.2z"/>
	<polygon class="st19" points="247,100.3 252.3,107.4 270.2,93.9 270.2,155.5 	"/>
	<path class="st25" d="M195.2,176.9c-3.2,12.3-14.4,21.4-27.7,21.4h-0.3v-21.4H195.2L195.2,176.9z"/>
	<path class="st19" d="M170.1,141.1c14.6,1.3,26,13.6,26,28.6c0,2.5-0.3,5-0.9,7.3h-25v-35.9H170.1z"/>
	<path class="st2" d="M162.8,131.5c15.8,0,28.6,12.8,28.6,28.7c0,15.8-12.8,28.7-28.6,28.7s-28.6-12.8-28.6-28.7
		C134.2,144.4,147,131.5,162.8,131.5L162.8,131.5z"/>
	<path class="st3" d="M173.7,167.6c15.1-3.5,10-30.1,17.3-12.1l0,0c0.3,1.6,0.4,3.1,0.4,4.8c0,15.8-12.8,28.7-28.6,28.7
		c-10.8,0-20.2-6-25.1-14.9l-0.1-0.1c-5.2-11,6.3,6.9,14.7,5.4C162.4,177.6,160,170.7,173.7,167.6L173.7,167.6z"/>
	<path class="st3" d="M168.8,160.8c1.1,0,2,1.4,2,3.2s-0.9,1.1-2,1.1c-1.1,0-2,0.6-2-1.1C166.8,162.2,167.7,160.8,168.8,160.8
		L168.8,160.8z"/>
	<path class="st3" d="M176.7,155.7c1,0,1.8,1.3,1.8,2.9c0,1.6-0.8,1-1.8,1s-1.8,0.6-1.8-1C174.9,157.1,175.7,155.7,176.7,155.7
		L176.7,155.7z"/>
	<path class="st3" d="M169.2,147.2c1,0,1.8,1.3,1.8,2.9c0,1.6-0.8,1-1.8,1s-1.8,0.6-1.8-1C167.4,148.5,168.2,147.2,169.2,147.2
		L169.2,147.2z"/>
	<path class="st3" d="M152.1,141.8c1.1,0,2.1,1.5,2.1,3.3s-0.9,1.2-2.1,1.2c-1.1,0-2.1,0.7-2.1-1.2C150,143.3,151,141.8,152.1,141.8
		L152.1,141.8z"/>
</g>
</svg>
