<?xml version="1.0" encoding="utf-8"?>
<!-- Generator: Adobe Illustrator 24.1.3, SVG Export Plug-In . SVG Version: 6.00 Build 0)  -->
<svg version="1.1" id="Layer_1" xmlns="http://www.w3.org/2000/svg" xmlns:xlink="http://www.w3.org/1999/xlink" x="0px" y="0px"
	 viewBox="0 0 150.4 161.9" style="enable-background:new 0 0 150.4 161.9;" xml:space="preserve">
<style type="text/css">
	.st0{fill:#0079C8;}
	.st1{fill:#FFFFFF;}
</style>
<g>
	<path class="st0" d="M75.2,0C33.7,0,0,33.7,0,75.2c0,24.1,11.3,45.5,28.9,59.2c2.3,7.4,2.2,16.8-8.6,24.1
		c-13.5,9.1,16.4-1.7,38.1-10c5.4,1.2,11,1.9,16.8,1.9c41.5,0,75.2-33.7,75.2-75.2S116.7,0,75.2,0z"/>
	<g>
		<path class="st1" d="M112.7,59.8c-0.7-2.5-1.9-4.8-3.8-6.7c-2.5-2.4-5.6-3.4-9-3.7c-2.8-0.3-5.5-0.2-8.2,0.6
			c-3.2,0.9-5.8,2.6-7.4,5.6c-1.4,2.6-1.9,5.4-2,8.3c0,1.1,0,2.1,0.3,3.1c0.7,2.6,2.1,4.8,3.8,6.9c1.3,1.6,2.7,3.1,3.8,4.8
			c1,1.6,2,3.2,2.1,5.1c0.5,5.2-1.4,9.4-5.3,12.8c-2.5,2.2-5.1,4.4-7.7,6.6c-0.3,0.2-0.5,0.4-0.2,0.8c2.1,2.8,4.3,5.7,6.4,8.5
			c0.3,0.3,0.5,0.4,0.8,0.1c0.8-0.5,1.5-1,2.3-1.5c5.4-3.7,10.4-8,14.5-13.1c6.9-8.6,10.3-18.5,10.5-30.3
			C113.7,65.5,113.5,62.6,112.7,59.8z"/>
		<path class="st1" d="M63.1,50.9c-2.6-1.2-5.3-1.6-8.2-1.6c-1.9,0-3.8,0.2-5.7,0.7c-3.2,0.9-5.8,2.6-7.5,5.5
			c-1.4,2.5-1.9,5.2-2,8.1c0,1.2,0,2.3,0.3,3.5c0.7,2.6,2.2,4.8,3.9,6.9c1.3,1.6,2.7,3.1,3.8,4.8c1.6,2.5,2.5,5.1,2.1,8.1
			c-0.5,3.6-2,6.7-4.7,9.2c-2.7,2.5-5.5,4.8-8.3,7.2c-0.4,0.3-0.4,0.6-0.1,1c2.1,2.8,4.2,5.5,6.2,8.3c0.3,0.4,0.5,0.4,0.9,0.2
			c2.4-1.6,4.7-3.2,6.9-5c5.6-4.5,10.4-9.6,14-15.9c2.3-4.1,4-8.4,5.1-12.9c0.7-3,1-6.1,1.2-9.2c0.2-3.8-0.1-7.5-1.4-11.1
			C68.6,55.1,66.5,52.5,63.1,50.9z"/>
	</g>
</g>
</svg>
