<?xml version="1.0" encoding="utf-8"?>
<!-- Generator: Adobe Illustrator 21.0.2, SVG Export Plug-In . SVG Version: 6.00 Build 0)  -->
<svg version="1.1" id="Layer_1" xmlns="http://www.w3.org/2000/svg" xmlns:xlink="http://www.w3.org/1999/xlink" x="0px" y="0px"
	 viewBox="0 0 184.6 35" style="enable-background:new 0 0 184.6 35;" xml:space="preserve">
<style type="text/css">
	.st0{fill:#FFFFFF;}
</style>
<g>
	<path class="st0" d="M58.4,23.4v6.1h-5v-6l-7.1-13.2h5l4.5,8.2l4.4-8.2h5L58.4,23.4z"/>
	<path class="st0" d="M80.3,22.1c0,4.6-3.2,7.6-8.1,7.6s-8.1-3-8.1-7.6c0-4.5,3.2-7.6,8.1-7.6S80.3,17.5,80.3,22.1z M69,22.2
		c0,2.2,1.3,3.7,3.2,3.7c1.9,0,3.2-1.5,3.2-3.7c0-2.2-1.3-3.7-3.2-3.7C70.3,18.5,69,19.9,69,22.2z"/>
	<path class="st0" d="M97.2,14.7v14.8h-4.9v-2.4c-1,1.7-2.6,2.6-4.7,2.6c-3.2,0-5.3-2.2-5.3-5.7v-9.4h4.9v8c0,1.7,0.9,2.7,2.4,2.7
		c1.7,0,2.8-1.4,2.8-3.3v-7.3H97.2z"/>
	<path class="st0" d="M110.6,14.5v4.5c-2.7-0.3-4.5,0.9-4.8,3v7.6h-4.9V14.7h4.9v2.5C106.8,15.4,108.5,14.5,110.6,14.5z"/>
	<path class="st0" d="M124,10.3v14.9h8.1v4.3H119V10.3H124z"/>
	<path class="st0" d="M149.4,22.1c0,4.6-3.2,7.6-8.1,7.6s-8.1-3-8.1-7.6c0-4.5,3.2-7.6,8.1-7.6S149.4,17.5,149.4,22.1z M138.1,22.2
		c0,2.2,1.3,3.7,3.2,3.7c1.9,0,3.2-1.5,3.2-3.7c0-2.2-1.3-3.7-3.2-3.7C139.4,18.5,138.1,19.9,138.1,22.2z"/>
	<path class="st0" d="M166,14.7v13.5c0,4.2-3.3,6.8-8,6.8c-2.6,0-5-0.8-6.6-1.9l1.7-3.4c1.3,0.9,3,1.5,4.6,1.5
		c2.2,0,3.6-1.1,3.6-2.8v-1.6c-1,1.3-2.4,1.9-4.2,1.9c-3.7,0-6.3-2.8-6.3-7.1c0-4.2,2.5-7,6.2-7c1.9,0,3.3,0.7,4.3,2v-1.8H166z
		 M161.2,21.7c0-2.1-1.2-3.5-3-3.5c-1.8,0-3,1.4-3,3.5c0,2,1.2,3.4,3,3.4C160,25.1,161.2,23.7,161.2,21.7z"/>
	<path class="st0" d="M184.6,22.1c0,4.6-3.2,7.6-8.1,7.6s-8.1-3-8.1-7.6c0-4.5,3.2-7.6,8.1-7.6S184.6,17.5,184.6,22.1z M173.3,22.2
		c0,2.2,1.3,3.7,3.2,3.7c1.9,0,3.2-1.5,3.2-3.7c0-2.2-1.3-3.7-3.2-3.7C174.6,18.5,173.3,19.9,173.3,22.2z"/>
</g>
<g>
	<g>
		<g>
			<g>
				<path class="st0" d="M34.5,14.8l-5.3-5.3V3.3c0-1.1-0.9-2-2-2c-1.1,0-2,0.9-2,2v2.1l-4-4c-2-2-5.4-2-7.3,0L0.6,14.8
					c-0.8,0.8-0.8,2.1,0,2.8c0.8,0.8,2.1,0.8,2.8,0L16.7,4.3c0.4-0.4,1.2-0.4,1.6,0l13.3,13.3c0.4,0.4,0.9,0.6,1.4,0.6
					c0.5,0,1-0.2,1.4-0.6C35.3,16.8,35.3,15.6,34.5,14.8z"/>
				<path class="st0" d="M18.3,8.1c-0.4-0.4-1-0.4-1.4,0L5.2,19.8C5,20,4.9,20.2,4.9,20.5V29c0,2,1.6,3.6,3.6,3.6h5.8v-9h6.5v9h5.8
					c2,0,3.6-1.6,3.6-3.6v-8.5c0-0.3-0.1-0.5-0.3-0.7L18.3,8.1z"/>
			</g>
		</g>
	</g>
</g>
</svg>
