<svg id="logo_4" xmlns="http://www.w3.org/2000/svg" width="1412" height="1098" viewBox="0 0 1412 1098">
  <defs>
    <style>
      .cls-1 {
        fill: #f48000;
      }

      .cls-1, .cls-2 {
        fill-rule: evenodd;
      }

      .cls-2 {
        fill: #353535;
      }
    </style>
  </defs>
  <path id="Rectangle_512_copy" data-name="Rectangle 512 copy" class="cls-1" d="M1352.72,480.06l-187.5-251.646-114.34,95.724-37.68-52.2,155.39-122.5,240.9,330.421Zm-204.05-117.5H1122.4V333.451h26.27v29.106Zm0,35.955H1122.4V369.405h26.27v29.107Zm184.32,81.548h-19.74L1152.89,262.954l12.33-12.336Zm-151.27-117.5h-26.26V333.451h26.26v29.106Zm0,35.955h-26.26V369.405h26.26v29.107Zm-992.888-48.93H169.244v-21.7h19.588v21.7Zm-19.588-48.516h19.588v21.7H169.244v-21.7Zm-5.061,48.516H144.6v-21.7h19.588v21.7ZM144.6,301.066h19.588v21.7H144.6v-21.7ZM1039.23,484.334L764.522,115.65l-449.1,375.967h-167.9l0.048-.054H1.853L121.82,360.445,120.106,411.7h97.655L339.409,273.3l-121.644,3.8-49.687-58.85L123.533,275.2l-30.839,1.9,68.532-91.123,123.538,11.174V160.975h71.005v42.6l57.313,5.184L769.447-.071,1122.39,484.023ZM278.106,118.824h86.537v33.284H278.106V118.824ZM717.737,365.707H659.485V301.161h58.252v64.546Zm0,79.733H659.485V380.894h58.252V445.44Zm73.3-79.733H732.785V301.161h58.252v64.546Zm0,79.733H732.785V380.894h58.252V445.44Z"/>
  <path id="NORTHERN_IRELAND" data-name="NORTHERN IRELAND" class="cls-2" d="M174.3,528.373H117.46v90.521L57.287,528.373H0.442v177.04H57.287v-89.02l60.174,89.02H174.3V528.373Zm113.943,178.79a95.388,95.388,0,0,0,46.73-11.752,88.162,88.162,0,0,0,33.8-32.508q12.417-20.753,12.419-46.76t-12.419-46.761A87.528,87.528,0,0,0,335.105,537a100.485,100.485,0,0,0-93.844,0,88.158,88.158,0,0,0-33.928,32.382q-12.549,20.759-12.547,46.761t12.547,46.76a89.042,89.042,0,0,0,33.928,32.508,95.881,95.881,0,0,0,46.986,11.752h0Zm0-51.761q-17.159,0-26.374-10.628t-9.218-28.631q0-18.251,9.218-28.882t26.374-10.627q16.9,0,26.118,10.627t9.218,28.882q0,18-9.218,28.631T288.247,655.4h0Zm267.065,50.011-39.433-67.765q18.946-6,29.063-19.755a51.8,51.8,0,0,0,10.114-31.507,56.855,56.855,0,0,0-7.81-29.631Q539.433,543.627,523.817,536t-37.64-7.627h-84.5v177.04h56.845V641.9h0.256l34.055,63.514h62.478ZM458.523,574.884h22.533q7.934,0,12.162,4t4.225,11q0,7.754-4.1,11.378t-12.29,3.625H458.523V574.884Zm104.47-46.511v44.01h47.626v133.03h56.845V572.383H715.6v-44.01H562.993Zm278.844,0v63.765H787.809V528.373H730.965v177.04h56.844V636.4h54.028v69.015h56.845V528.373H841.837Zm203.3,44.26v-44.26H924.285v177.04H1045.14v-44.26H981.129V636.147h56.331V594.388H981.129V572.633h64.011Zm175.15,132.78-39.44-67.765q18.945-6,29.07-19.755a51.8,51.8,0,0,0,10.11-31.507,56.9,56.9,0,0,0-7.81-29.631q-7.815-13.128-23.43-20.755t-37.64-7.627h-84.5v177.04h56.85V641.9h0.25l34.06,63.514h62.48ZM1123.5,574.884h22.53q7.935,0,12.16,4t4.23,11q0,7.754-4.1,11.378t-12.29,3.625H1123.5V574.884Zm288.57-46.511h-56.84v90.521l-60.18-90.521h-56.84v177.04h56.84v-89.02l60.18,89.02h56.84V528.373ZM162.268,756.318v177.04h56.845V756.318H162.268Zm236.081,177.04-39.432-67.766q18.947-6,29.062-19.754a51.792,51.792,0,0,0,10.114-31.507,56.855,56.855,0,0,0-7.809-29.632q-7.813-13.128-23.429-20.755t-37.641-7.626h-84.5v177.04H301.56V869.843h0.256l34.056,63.515h62.477ZM301.56,802.828h22.533q7.933,0,12.163,4t4.225,11q0,7.753-4.1,11.377t-12.291,3.626H301.56V802.828Zm235.571-2.25v-44.26H416.273v177.04H537.131V889.1H473.117V864.092H529.45V822.333H473.117V800.578h64.014Zm78.353-44.26H558.64v177.04H670.28v-42.01h-54.8V756.318Zm197.931,177.04h59.917l-66.063-177.04h-65.55L675.4,933.358h59.661l8.962-26.756h60.429Zm-55.564-68.516,16.387-49.261,16.388,49.261H757.851ZM1060,756.318h-56.85v90.52l-60.172-90.52H886.133v177.04h56.845v-89.02l60.172,89.02H1060V756.318Zm101.14,0H1085.6v177.04h75.54q28.41,0,49.8-11.628a82.018,82.018,0,0,0,32.9-31.882q11.52-20.254,11.52-45.51,0-25.506-11.52-45.511a80.048,80.048,0,0,0-32.9-31.257q-21.39-11.252-49.8-11.252h0Zm-5.13,127.528h-13.57V804.829h13.57q19.215,0,30.48,10.252,11.25,10.255,11.26,29.257t-11.26,29.256q-11.28,10.257-30.48,10.252h0Z"/>
  <path id="HOME_BUYERS" data-name="HOME BUYERS" class="cls-1" d="M66.49,995.7v44.165H15.249V995.7H2.114v100.6H15.249v-45.61H66.49v45.61H79.625V995.7H66.49ZM193.8,1097.31a51.036,51.036,0,0,0,25.692-6.57,47.615,47.615,0,0,0,18.187-18.26,56.42,56.42,0,0,0,0-53.11,47.684,47.684,0,0,0-18.187-18.26,53.238,53.238,0,0,0-51.24,0,48.084,48.084,0,0,0-18.259,18.33,55.61,55.61,0,0,0,0,52.97,47.946,47.946,0,0,0,18.259,18.33,50.746,50.746,0,0,0,25.548,6.57h0Zm0-11.4a37.1,37.1,0,0,1-18.981-4.91,34.538,34.538,0,0,1-13.279-14,44.2,44.2,0,0,1-4.835-21.07q0-12.135,4.835-21.15a34.813,34.813,0,0,1,13.207-13.93,39.422,39.422,0,0,1,38.106,0,34.847,34.847,0,0,1,13.207,13.93q4.834,9.015,4.835,21.15a44.227,44.227,0,0,1-4.835,21.07,34.551,34.551,0,0,1-13.279,14,37.1,37.1,0,0,1-18.981,4.91h0ZM395.87,996.417l-36.951,82.563-36.951-82.563H307.822V1096.3h13.135v-74.62L354.3,1096.3h9.238l33.2-74.48v74.48h13.135V996.417h-14Zm136.544,9.963V995.551H478.286V1096.3h54.128v-10.83H491.421v-34.64h36.662v-10.82H491.421v-33.63h40.993Zm201.206,38.1a27.036,27.036,0,0,0,12.775-8.44q4.833-5.85,4.835-14.8a24.014,24.014,0,0,0-3.609-12.99,24.788,24.788,0,0,0-10.825-9.163q-7.22-3.39-17.465-3.392H683.246v100.6h37.528a40.428,40.428,0,0,0,17.538-3.54,26.431,26.431,0,0,0,11.33-9.67,26.022,26.022,0,0,0,1.227-25.18,26.23,26.23,0,0,0-7.217-8.95,21.252,21.252,0,0,0-10.032-4.48h0Zm-37.239-37.96h21.8q9.527,0,14.578,4.33t5.052,11.98q0,7.65-5.052,11.98t-14.289,4.33H696.381v-32.62Zm23.239,78.95H696.381v-35.5h22.806q9.667,0,15.444,4.83,5.77,4.845,5.773,13.21,0,8.22-5.484,12.85t-15.3,4.61h0ZM817.625,995.7V1059.2q0,12.57,4.979,21.15a31.241,31.241,0,0,0,13.568,12.77,46.4,46.4,0,0,0,38.539,0,31.686,31.686,0,0,0,13.64-12.77q5.05-8.58,5.052-21.15V995.7H880.268v63.655q0,13.425-6.567,19.92t-18.115,6.49q-11.691,0-18.259-6.49t-6.567-19.92V995.7H817.625Zm199.765,0-24.828,50.955L967.736,995.7H953.158l32.909,62.645v37.96H999.2v-37.96L1031.97,995.7h-14.58Zm128.75,10.685V995.551h-54.13V1096.3h54.13v-10.83h-40.99v-34.64h36.66v-10.82h-36.66v-33.63h40.99Zm134.81,89.92-25.26-42.15q11.985-2.6,17.97-10.53a29.665,29.665,0,0,0,5.99-18.34,29.367,29.367,0,0,0-3.9-15.15,27.085,27.085,0,0,0-11.76-10.538q-7.875-3.9-19.27-3.9h-32.48v100.6h13.14v-41.14h15.88l23.96,41.14h15.73Zm-55.57-89.78h19.34q10.83,0,16.1,4.91t5.26,13.85q0,8.82-5.34,14.08t-16.02,5.27h-19.34v-38.11Zm152.71,90.79a38.142,38.142,0,0,0,18.04-4.04,28.645,28.645,0,0,0,11.55-10.54,26.468,26.468,0,0,0,3.9-13.85q0-9.54-4.33-15.09a26.921,26.921,0,0,0-10.4-8.23,120.164,120.164,0,0,0-16.02-5.41q-8.22-2.31-12.77-4.11a19.99,19.99,0,0,1-7.65-5.27,12.9,12.9,0,0,1-3.11-8.95q0-7.65,5.2-11.91c3.46-2.83,7.94-4.26,13.42-4.26q8.8,0,14.15,4.41c3.56,2.93,5.58,6.33,6.06,10.17h14.44a26.171,26.171,0,0,0-10.18-18.76q-9.03-7.072-23.17-7.074a41.416,41.416,0,0,0-17.39,3.464,27.239,27.239,0,0,0-11.76,9.82,25.79,25.79,0,0,0-4.19,14.57q0,9.39,4.26,14.94a25.606,25.606,0,0,0,10.25,8.16,113.075,113.075,0,0,0,15.95,5.19,125.692,125.692,0,0,1,12.84,4.05,20.319,20.319,0,0,1,7.94,5.48,13.668,13.668,0,0,1,3.18,9.38,15.206,15.206,0,0,1-5.42,12.05q-5.4,4.7-14.79,4.7-9.825,0-14.94-4.84a18.4,18.4,0,0,1-5.85-11.91h-14a25.208,25.208,0,0,0,4.62,14.51,29.687,29.687,0,0,0,12.34,9.81,43.029,43.029,0,0,0,17.83,3.54h0Z"/>
</svg>
