<svg id="logo_3" xmlns="http://www.w3.org/2000/svg" width="1464" height="437" viewBox="0 0 1464 437">
  <defs>
    <style>
      .cls-1 {
        fill: #fff;
        fill-rule: evenodd;
      }
    </style>
  </defs>
  <path id="NortherN_Ireland" data-name="NortherN Ireland" class="cls-1" d="M608.7,14.085H569.43V78.123L527.858,14.085H488.586V139.332h39.272V76.354l41.572,62.978H608.7V14.085Zm78.72,126.485a64.7,64.7,0,0,0,32.285-8.314,61.582,61.582,0,0,0,23.351-23,64.345,64.345,0,0,0,8.58-33.081,64.36,64.36,0,0,0-8.58-33.081A61.137,61.137,0,0,0,719.8,20.188a67.987,67.987,0,0,0-64.834,0A61.557,61.557,0,0,0,631.522,43.1a63.831,63.831,0,0,0-8.668,33.081,63.815,63.815,0,0,0,8.668,33.081,62.184,62.184,0,0,0,23.44,23,65.023,65.023,0,0,0,32.461,8.314h0Zm0-36.619q-11.853,0-18.221-7.518t-6.368-20.255q0-12.911,6.368-20.432t18.221-7.518q11.676,0,18.044,7.518t6.369,20.432q0,12.737-6.369,20.255t-18.044,7.518h0Zm184.509,35.381L844.689,91.391q13.089-4.246,20.078-13.975a37.237,37.237,0,0,0,6.988-22.29,40.959,40.959,0,0,0-5.4-20.963A37.5,37.5,0,0,0,850.173,19.48q-10.793-5.394-26-5.4H765.79V139.332h39.273V94.4h0.176l23.529,44.934h43.164ZM805.063,46.988H820.63q5.481,0,8.4,2.83a10.342,10.342,0,0,1,2.919,7.784q0,5.485-2.831,8.049t-8.491,2.565H805.063V46.988Zm72.176-32.9V45.219h32.9v94.113h39.272V45.219h33.258V14.085H877.239Zm192.651,0v45.11h-37.33V14.085H993.286V139.332h39.274V90.507h37.33v48.825h39.27V14.085h-39.27ZM1210.34,45.4V14.085h-83.49V139.332h83.49V108.02h-44.22V90.33h38.92V60.787h-38.92V45.4h44.22Zm121.01,93.936L1304.1,91.391q13.1-4.246,20.08-13.975a37.225,37.225,0,0,0,6.99-22.29,40.932,40.932,0,0,0-5.4-20.963,37.506,37.506,0,0,0-16.18-14.683q-10.8-5.394-26.01-5.4H1225.2V139.332h39.28V94.4h0.17l23.53,44.934h43.17Zm-66.87-92.344h15.56q5.49,0,8.41,2.83a10.365,10.365,0,0,1,2.92,7.784c0,3.657-.95,6.341-2.83,8.049s-4.72,2.565-8.5,2.565h-15.56V46.988Zm199.37-32.9h-39.28V78.123L1383,14.085h-39.27V139.332H1383V76.354l41.57,62.978h39.28V14.085ZM488.586,173.278V298.525h39.272V173.278H488.586Zm163.1,125.247-27.243-47.94q13.089-4.247,20.078-13.976a37.233,37.233,0,0,0,6.988-22.289,40.967,40.967,0,0,0-5.4-20.963,37.5,37.5,0,0,0-16.186-14.683q-10.792-5.394-26-5.4H545.547V298.525h39.272V253.592H585l23.528,44.933h43.165Zm-66.87-92.343h15.568q5.481,0,8.4,2.831a10.339,10.339,0,0,1,2.919,7.783q0,5.486-2.831,8.049t-8.491,2.565H584.819V206.182ZM747.57,204.59V173.278h-83.5V298.525h83.5V267.214H703.344V249.523h38.919V219.98H703.344V204.59H747.57ZM801.7,173.278H762.429V298.525h77.13V268.806H801.7V173.278ZM938.447,298.525h41.395L934.2,173.278H888.914L843.1,298.525h41.218l6.192-18.928h41.749Zm-38.388-48.471,11.322-34.85,11.322,34.85H900.059ZM1108.8,173.278h-39.27v64.039l-41.57-64.039H988.687V298.525h39.273V235.548l41.57,62.977h39.27V173.278Zm69.88,0h-52.19V298.525h52.19q19.635,0,34.41-8.226a57.361,57.361,0,0,0,22.73-22.555,65.123,65.123,0,0,0,7.96-32.2q0-18.043-7.96-32.2a55.944,55.944,0,0,0-22.73-22.113q-14.775-7.961-34.41-7.961h0Zm-3.54,90.221h-9.37V207.6h9.37q13.275,0,21.05,7.253t7.79,20.7q0,13.446-7.79,20.7t-21.05,7.253h0Z"/>
  <path id="Home_buyers" data-name="Home buyers" class="cls-1" d="M537.46,344.34v33.77H498.281V344.34H488.238v76.921h10.043V386.387H537.46v34.874H547.5V344.34H537.46Zm86.3,77.694a39.022,39.022,0,0,0,19.644-5.022,36.48,36.48,0,0,0,13.9-13.96,43.149,43.149,0,0,0,0-40.613,36.489,36.489,0,0,0-13.9-13.961,40.723,40.723,0,0,0-39.178,0,36.755,36.755,0,0,0-13.961,14.016,42.523,42.523,0,0,0,0,40.5,36.731,36.731,0,0,0,13.961,14.015,38.8,38.8,0,0,0,19.534,5.022h0Zm0-8.719a28.341,28.341,0,0,1-14.513-3.752,26.4,26.4,0,0,1-10.153-10.7,37.082,37.082,0,0,1,0-32.281,26.62,26.62,0,0,1,10.1-10.65,30.156,30.156,0,0,1,29.135,0,26.647,26.647,0,0,1,10.1,10.65,37.082,37.082,0,0,1,0,32.281,26.409,26.409,0,0,1-10.153,10.7,28.345,28.345,0,0,1-14.512,3.752h0ZM767.23,344.891l-28.253,63.127-28.252-63.127H699.909v76.37h10.043V364.205l25.494,57.056h7.063l25.383-56.946v56.946h10.043v-76.37h-10.7Zm93.364,7.615v-8.277H819.209v77.032h41.385v-8.277H829.252V386.5h28.031V378.22H829.252V352.506h31.342Zm131.77,29.136a20.7,20.7,0,0,0,9.766-6.456,17.183,17.183,0,0,0,3.7-11.313,18.351,18.351,0,0,0-2.76-9.932,18.925,18.925,0,0,0-8.278-7.008,31.234,31.234,0,0,0-13.354-2.593h-27.59v76.921h28.694a30.91,30.91,0,0,0,13.408-2.7,20.186,20.186,0,0,0,8.66-7.394,19.912,19.912,0,0,0,.94-19.258,20.054,20.054,0,0,0-5.52-6.842,16.235,16.235,0,0,0-7.666-3.421h0Zm-28.473-29.025h16.664q7.284,0,11.147,3.31a12.794,12.794,0,0,1,0,18.32q-3.865,3.312-10.926,3.311H963.891V352.617Zm17.768,60.367H963.891V385.835h17.437q7.392,0,11.808,3.7a12.48,12.48,0,0,1,4.415,10.1q0,6.29-4.194,9.822t-11.7,3.531h0Zm63.9-68.644V392.9q0,9.6,3.8,16.168a23.917,23.917,0,0,0,10.38,9.767,35.492,35.492,0,0,0,29.46,0,24.2,24.2,0,0,0,10.43-9.767q3.87-6.564,3.87-16.168V344.34h-10.05v48.669q0,10.263-5.02,15.23t-13.85,4.966q-8.94,0-13.96-4.966t-5.02-15.23V344.34h-10.04Zm141.7,0L1168.28,383.3,1149.3,344.34h-11.15l25.16,47.9v29.025h10.04V392.236l25.06-47.9h-11.15Zm87.41,8.166v-8.277h-41.39v77.032h41.39v-8.277h-31.35V386.5h28.03V378.22h-28.03V352.506h31.35Zm92.03,68.755-19.31-32.225q9.165-1.988,13.74-8.057a23.86,23.86,0,0,0,1.6-25.6,20.706,20.706,0,0,0-8.99-8.057A32.982,32.982,0,0,0,1339,344.34h-24.83v76.921h10.05V389.808h12.14l18.32,31.453h12.02Zm-42.48-68.644H1339q8.28,0,12.31,3.752t4.03,10.595q0,6.732-4.09,10.76T1339,381.752h-14.78V352.617Zm105.72,69.417a29.178,29.178,0,0,0,13.8-3.09,21.888,21.888,0,0,0,8.82-8.057,20.216,20.216,0,0,0,2.98-10.594q0-7.284-3.31-11.533a20.388,20.388,0,0,0-7.94-6.291,92.241,92.241,0,0,0-12.25-4.138q-6.3-1.764-9.77-3.145a15.27,15.27,0,0,1-5.85-4.029,9.869,9.869,0,0,1-2.37-6.842,11.112,11.112,0,0,1,3.97-9.105,15.676,15.676,0,0,1,10.26-3.256q6.735,0,10.82,3.366a11.938,11.938,0,0,1,4.64,7.781h11.03a19.976,19.976,0,0,0-7.78-14.347q-6.9-5.406-17.71-5.408a31.64,31.64,0,0,0-13.3,2.649,20.835,20.835,0,0,0-8.99,7.5,19.749,19.749,0,0,0-3.21,11.146q0,7.174,3.26,11.422a19.6,19.6,0,0,0,7.84,6.236,86.245,86.245,0,0,0,12.19,3.973,94.375,94.375,0,0,1,9.82,3.09,15.516,15.516,0,0,1,6.07,4.194,10.455,10.455,0,0,1,2.43,7.173,11.636,11.636,0,0,1-4.14,9.215q-4.14,3.588-11.31,3.587-7.5,0-11.42-3.7a14.112,14.112,0,0,1-4.47-9.105h-10.71a19.276,19.276,0,0,0,3.53,11.091,22.711,22.711,0,0,0,9.44,7.5,32.869,32.869,0,0,0,13.63,2.7h0Z"/>
  <path class="cls-1" d="M425.916,284.239l-57.047,22.473-0.21.191-21.02,8.321c0.94,1.146,1.455,1.976.957,2.119-2.059.589-1.483,3.789-10.119,7.359s-13.495-1.8-17.893-3.9-6.943-3.463-6.943-3.463l7.856-8.776s-0.65-4.61-2.558-12.5-8.759-25.242-11.351-32.472-8.44-20.537-12.32-28.251-9.927-9-9.927-9,6.815-3.318,10.615-4.689,31.483-14.693,31.483-14.693,0.307,0.9.807,2.334l54.466-26.8-0.734-.945,12.272-4.809,0.043,0.055,0.721-.354,1.025-.4-0.025-.091,2.937-1.445A184.374,184.374,0,0,0,44.9,159.25l-15.076-4.708L11.97,147.073c29.457-85.535,110.632-147,206.17-147,120.4,0,218.008,97.606,218.008,218.008A217.843,217.843,0,0,1,425.916,284.239Zm-84.441,22.327a1.488,1.488,0,0,0,.179,1.238ZM384.814,164.7l-12.2,4.809L360.459,153.88l-63.4,40.109L268.6,157.762l99.624-14.232Zm-77.4-17.289h-7.763L247.9,76.251ZM256.941,116.6l-8.408.164v-9.937l8.408,0.207V116.6Zm-8.408-21.92,8.408,0.661v9.567l-8.408-.29V94.682Zm-2.949,22.142-9.332.183V106.526l9.332,0.23v10.068Zm-9.332-23.107,9.332,0.734v10.069l-9.332-.322V93.717Zm14.232-34.285,76.335,85.392H313.881L246.6,67.195l-28.464,34.933-64.691,9.056V95.659l-29.758,5.175v19.407l-27.17,3.882,38.815-45.284,32.345-3.881V58.138l22-2.588V89.19L194.85,87.9v-20.7ZM128.865,123.976V106.009l19.408-3.881v36.227l5.175-1.294V119.8L219.433,108.6,295.521,199.9l-10.769,4.246L210.376,116.36,136.5,187.853,56.987,163.025l25.3-31.14Zm10.847,195.591a45.736,45.736,0,0,1,7.12,6.533s11.141-5.963,18.146-2.725a15.187,15.187,0,0,1,8.568,12.323,7.339,7.339,0,0,1-1.339,4.049s6.471-7.021,12.393-6.2c4.059,0.564,8.861,5,9.033,9.575s-1.257,6.781-1.257,6.781,5.6-.476,8.3,3.4c3.469,4.971.914,12.367,0.914,12.367l7.071,4.894s-7.383,5.141-15.328,5.558-10.1-4.159-11.678-6.58,0.368-6.026.368-6.026-7.75,3.174-13.9-1.593a14.124,14.124,0,0,1-5.8-11.129s-6.389,4.757-12.121,3.093-7.16-5.851-8.277-8.686-2.222-6.884-1.71-8.516a7.921,7.921,0,0,0,.476-2.383s-2.116,3.09-8.206-.122-7.031-9.1-7.507-13.448a12.914,12.914,0,0,1,1.953-7.9S134.481,315.446,139.712,319.567ZM196.387,142.8l11.536,0.96V156.94l-11.536-.42V142.8Zm11.536,30.248-11.536.239V159.569l11.536,0.3v13.18Zm3.647-28.984,10.4,0.865v12.522l-10.4-.379V144.065Zm10.4,28.693-10.4.215V159.964l10.4,0.271v12.523Zm36.282,7H249.19l-12.938-27.17Zm-52.284,74.271s-0.784,4.528-5.964,14.03-10.084,11.325-12.381,12.761-9.636.435-13.712-1.417-3.665-4.306-2.969-7.931,6.832-23.953,7.788-26.3-0.994-8.127,4.158-13.429c3.7-3.806,7.818-4.344,19.265-8.043s6.26-5.385,17.068-8.344,17.564,0.191,23.793,3.3,12.878,5.435,26.885,9.228,16.266,6.636,17.945,8.947,6.284,11.521,14.217,30.746,12.88,40.994,12.88,40.994a79.689,79.689,0,0,1-6.191,6.38,56.24,56.24,0,0,1-9.821,6.853s-0.911-.966-12.167-10.758-36.042-38.63-36.527-39.381-1.212-.744-4.446-2.42-19.89-15.612-23.662-17.344-5.136-.762-10.53,1.406S205.963,254.028,205.963,254.028Z"/>
  <path id="Ellipse_512_copy" data-name="Ellipse 512 copy" class="cls-1" d="M46.48,184.713l47.374,19.9,1.778-5.384,39.517,13.43s1.841,8.96-1.87,23.022-6.977,21.382-10.047,30.007-12.775,27.943-14.567,31.235-8,13-8,13l-37.23-13.184,1.712-5.185L48.59,286.4a184.378,184.378,0,0,0,316.957,44.139L415.068,311.7A218.021,218.021,0,0,1,218.139,436.094c-120.4,0-218.008-97.605-218.008-218.008a218.619,218.619,0,0,1,5.748-49.914Zm128.489,36.971c16.4,0.779,18.425.547,18.425,0.547s-12.522,3.184-14.594,5.718-5.229,7.338-5.349,10.184a48.859,48.859,0,0,1-.357,6.39c-0.339,1.837-8.981,26.332-8.761,30.334s0.509,8.473,11.807,10.951,16.776,0.022,21.945-4.972,7.594-13.464,9.056-16.819,3.882-3.882,3.882-3.882,5.252-2.744,6.469-2.588,3.131-1.169,9.9,4.687,11.485,9.54,14.925,11.588,3.473,2.144,6.739,6,19.184,21.876,32.354,33.855,12.431,11.321,14.03,12.161,2.018,1.121,2.106,3.4-0.767,7.372-3.152,10.482-3.27,3.24-5.891,4.185a13.078,13.078,0,0,1-4.531.863,218.651,218.651,0,0,1-28.024-23.047c-12.922-12.865-18.654-20.59-18.654-20.59s2.123,6.716,15.8,22.5,26.577,23.454,26.577,23.454l0.937,0.884a9.926,9.926,0,0,1-2.355,6.631c-2.65,3.184-3.566,4.95-8.96,5.187s-7.039-.078-9.5-0.812-11.435-5.839-20.86-15.057-18.188-17.141-18.188-17.141,4.846,8.363,15.494,18.5a162.793,162.793,0,0,0,19.43,16.01,13.362,13.362,0,0,0,1.677,1.226s-5.3,4.227-8.783,5a68.873,68.873,0,0,1-10.889,1.6c-2.019-.028-8.976-5.139-15.567-8.652s-13.987-10.7-13.987-10.7,10.712,12.161,16.517,16.1,6.707,4.9,6.707,4.9-5.9.375-10.2,0.12S216,370.111,216,370.111l1.248-.949-10.044-6.811a20.124,20.124,0,0,0-1.224-10.535c-2.242-5.713-6.932-6.356-6.932-6.356a18.779,18.779,0,0,0-4.577-12.988,12.574,12.574,0,0,0-12.149-4.014c-1.166.073-4.858,2.148-4.858,2.148s-1.248-9.418-9.461-11.749-18.548,1.461-18.548,1.461a54.43,54.43,0,0,0-12.466-8.562c-7.3-3.58-9.792-4.449-9.792-4.449l-1.4,1.865-13.071-10.549s15.671-28.323,22.04-49.684,5.312-29.867,5.312-29.867S158.569,220.9,174.969,221.684Z"/>
</svg>
