<?xml version="1.0" encoding="utf-8"?>
<!-- Generator: Adobe Illustrator 21.0.2, SVG Export Plug-In . SVG Version: 6.00 Build 0)  -->
<svg version="1.1" id="Layer_1" xmlns="http://www.w3.org/2000/svg" xmlns:xlink="http://www.w3.org/1999/xlink" x="0px" y="0px"
	 viewBox="0 0 20.4 15.6" style="enable-background:new 0 0 20.4 15.6;" xml:space="preserve">
<style type="text/css">
	.st0{fill:#8CC63F;}
</style>
<g>
	<path class="st0" d="M20.4,3c0,0.4-0.1,0.6-0.4,0.9l-9.5,9.5l-1.8,1.8c-0.2,0.2-0.5,0.4-0.9,0.4c-0.4,0-0.6-0.1-0.9-0.4l-1.8-1.8
		L0.4,8.7C0.1,8.5,0,8.2,0,7.8s0.1-0.6,0.4-0.9l1.8-1.8C2.4,4.9,2.7,4.8,3,4.8s0.6,0.1,0.9,0.4L7.8,9l8.6-8.6C16.7,0.1,17,0,17.3,0
		c0.4,0,0.6,0.1,0.9,0.4L20,2.2C20.3,2.4,20.4,2.7,20.4,3z"/>
</g>
</svg>
